<svg width="355" height="266" viewBox="0 0 355 266" fill="none" xmlns="http://www.w3.org/2000/svg">
<g clip-path="url(#clip0_114_103)">
<path d="M355 265.232C355 265.658 354.658 266 354.233 266H0.767254C0.341718 266 0 265.658 0 265.232C0 264.807 0.341718 264.465 0.767254 264.465H354.233C354.658 264.465 355 264.807 355 265.232Z" fill="#2E2E43"/>
<path d="M281.537 54.6807H73.5513C70.6766 54.6807 68.3379 52.3413 68.3379 49.4659V33.4375C68.3379 30.562 70.6766 28.2227 73.5513 28.2227H281.537C284.412 28.2227 286.751 30.562 286.751 33.4375V49.4659C286.751 52.3413 284.412 54.6807 281.537 54.6807Z" fill="white" stroke="#BAB7C9" stroke-width="2" stroke-linecap="round" stroke-linejoin="round"/>
<path d="M281.537 153.487H73.5513C70.6766 153.487 68.3379 151.148 68.3379 148.273V132.244C68.3379 129.369 70.6766 127.029 73.5513 127.029H281.537C284.412 127.029 286.751 129.369 286.751 132.244V148.273C286.751 151.148 284.412 153.487 281.537 153.487Z" fill="white" stroke="#BAB7C9" stroke-width="2" stroke-linecap="round" stroke-linejoin="round"/>
<path d="M133.887 224.431H72.9048C70.0301 224.431 67.6914 222.091 67.6914 219.216V203.187C67.6914 200.312 70.0301 197.973 72.9048 197.973H133.887C136.762 197.973 139.101 200.312 139.101 203.187V219.216C139.101 222.091 136.762 224.431 133.887 224.431Z" fill="#6C63FF"/>
<path d="M68.793 0.644531H114.409" stroke="#BAB7C9" stroke-width="2" stroke-linecap="round" stroke-linejoin="round"/>
<path d="M68.793 99.4531H153.529" stroke="#BAB7C9" stroke-width="2" stroke-linecap="round" stroke-linejoin="round"/>
<path d="M256.374 236.847L249.201 241.434L255.706 251.611L262.879 247.024L256.374 236.847Z" fill="#F1A1A4"/>
<path d="M233.623 100.03L224.562 103.125L224.42 90.0373L232.666 89.9453L233.623 100.03Z" fill="#F1A1A4"/>
<path d="M225.479 93.6513C230.484 93.6513 234.541 89.5933 234.541 84.5874C234.541 79.5815 230.484 75.5234 225.479 75.5234C220.475 75.5234 216.418 79.5815 216.418 84.5874C216.418 89.5933 220.475 93.6513 225.479 93.6513Z" fill="#F1A1A4"/>
<path d="M227.958 83.6643C226.444 83.635 225.428 82.1167 224.822 80.7196C224.215 79.331 223.592 77.7248 222.183 77.1601C221.029 76.7 219.038 79.9124 218.119 79.0758C217.161 78.2016 218.035 73.6341 219.034 72.8101C220.034 71.9861 221.405 71.8105 222.693 71.731C225.85 71.5511 229.024 71.7686 232.127 72.3835C234.042 72.7599 236.024 73.3413 237.416 74.7091C239.185 76.4449 239.662 79.0884 239.812 81.5604C239.971 84.0909 239.85 86.7427 238.646 88.9763C237.437 91.2057 234.882 92.8662 232.403 92.3309C232.139 90.9882 232.373 89.6121 232.457 88.2402C232.541 86.8766 232.419 85.4043 231.575 84.3251C230.73 83.246 228.949 82.8361 227.991 83.8107" fill="#2F2E43"/>
<path d="M239.14 86.6792C240.039 86.0058 241.114 85.4369 242.23 85.5624C243.439 85.6921 244.467 86.6792 244.789 87.8503C245.111 89.0215 244.777 90.3181 244.045 91.2885C243.313 92.2589 242.213 92.9031 241.043 93.2335C240.365 93.4259 239.625 93.5054 238.973 93.2335C238.015 92.832 237.488 91.6231 237.852 90.6486" fill="#2F2E43"/>
<path d="M205.42 172.308C204.852 175.29 205.985 178.001 207.958 178.356C209.928 178.712 211.989 176.579 212.562 173.596C212.809 172.408 212.755 171.179 212.403 170.012L219.374 123.266L209.982 121.609L206.892 169.025C206.135 169.995 205.629 171.12 205.42 172.321L205.42 172.308Z" fill="#F1A1A4"/>
<path d="M224.396 97.1191L217.999 97.1903C213.483 97.9222 212.283 100.352 211.308 104.82C209.816 111.633 207.909 120.714 208.31 120.839C208.95 121.048 219.893 126.051 225.434 124.813L224.401 97.1192L224.396 97.1191Z" fill="#6C63FF"/>
<path d="M232.253 245.694L223.74 245.789L223.875 257.868L232.388 257.773L232.253 245.694Z" fill="#F1A1A4"/>
<path d="M215.644 265.277C214.745 265.29 213.955 265.277 213.353 265.227C211.086 265.047 208.916 263.399 207.816 262.437C207.323 262.006 207.16 261.304 207.407 260.701C207.582 260.271 207.942 259.94 208.393 259.802L214.352 258.029L223.957 251.391L224.066 251.583C224.108 251.654 225.078 253.357 225.408 254.511C225.534 254.95 225.508 255.314 225.324 255.598C225.199 255.795 225.023 255.912 224.881 255.983C225.057 256.163 225.609 256.531 227.307 256.782C229.774 257.15 230.271 254.582 230.288 254.473L230.305 254.385L230.376 254.335C231.542 253.561 232.257 253.214 232.508 253.285C232.667 253.327 232.922 253.407 233.7 260.367C233.771 260.584 234.281 262.182 233.964 263.721C233.621 265.394 226.324 264.897 224.869 264.784C224.827 264.788 219.374 265.24 215.636 265.277H215.648L215.644 265.277Z" fill="#2F2E43"/>
<path d="M247.076 263.27C246.076 263.283 245.156 263.17 244.5 263.061C243.856 262.952 243.346 262.446 243.237 261.802C243.153 261.338 243.291 260.873 243.597 260.522L247.711 255.863L252.344 245.146L252.541 245.251C252.612 245.289 254.335 246.221 255.23 247.024C255.568 247.33 255.74 247.652 255.74 247.995C255.74 248.229 255.652 248.422 255.564 248.551C255.811 248.61 256.471 248.626 258.044 247.945C260.331 246.949 259.394 244.506 259.353 244.41L259.319 244.327L259.357 244.251C259.938 242.98 260.364 242.302 260.611 242.227C260.77 242.185 261.025 242.106 265.37 247.602C265.545 247.748 266.825 248.831 267.369 250.304C267.958 251.906 261.514 255.344 260.21 256.017C260.172 256.051 253.436 261.057 250.667 262.492C249.568 263.061 248.259 263.249 247.067 263.258L247.08 263.27L247.076 263.27Z" fill="#2F2E43"/>
<path d="M237.383 144.585L213.548 144.848L211.633 167.05L222.007 248.898L234.175 248.76L228.785 201.482L248.999 244L259.729 236.303L243.872 196.576C243.872 196.576 248.995 161.759 244.571 153.151C240.151 144.543 237.387 144.572 237.387 144.572V144.585L237.383 144.585Z" fill="#2F2E43"/>
<path d="M249.25 145.807L211.395 146.229L222.208 97.1492L238.704 96.9609L249.25 145.807Z" fill="#6C63FF"/>
<path d="M252.947 171.782C253.583 174.756 252.508 177.487 250.547 177.884C248.582 178.286 246.474 176.199 245.843 173.225C245.571 172.041 245.596 170.811 245.918 169.636L237.906 123.053L247.256 121.188L251.4 168.527C252.178 169.481 252.709 170.598 252.947 171.79V171.782Z" fill="#F1A1A4"/>
<path d="M232.31 97.032L238.708 96.9609C243.237 97.5967 244.491 99.9976 245.57 104.444C247.213 111.224 249.317 120.254 248.924 120.393C248.284 120.61 237.462 125.855 231.896 124.743L232.319 97.032L232.31 97.032Z" fill="#6C63FF"/>
</g>
<defs>
<clipPath id="clip0_114_103">
<rect width="355" height="266" fill="white"/>
</clipPath>
</defs>
</svg>
