<svg width="200" height="149" viewBox="0 0 200 149" fill="none" xmlns="http://www.w3.org/2000/svg">
<g clip-path="url(#clip0_171_1054)">
<path d="M170.733 147.495C172.855 142.524 174.352 137.114 173.643 131.76C173.401 129.944 172.872 128.178 172.078 126.528C171.438 125.182 170.611 123.933 169.623 122.819C169.281 122.425 168.812 122.165 168.298 122.082C167.783 121.999 167.256 122.1 166.808 122.366C166.739 122.406 166.67 122.449 166.606 122.494C166.259 122.738 165.986 123.072 165.815 123.46C165.782 123.535 165.755 123.611 165.733 123.689C165.635 124.016 165.609 124.36 165.656 124.698C166.029 127.454 165.948 130.252 165.416 132.982C165.28 133.677 165.114 134.365 164.918 135.048C164.478 134.498 164.009 133.971 163.515 133.469C162.233 132.17 160.755 131.081 159.135 130.242H159.132C159.124 130.237 159.119 130.234 159.111 130.229C157.146 129.227 154.526 129.643 152.995 130.324C152.894 130.367 152.798 130.415 152.705 130.46C151.906 130.87 151.509 131.342 151.85 131.65C151.927 131.717 152.005 131.786 152.076 131.855C154.397 134.001 156.299 136.56 157.684 139.401V139.404C158.234 140.535 158.698 141.706 159.071 142.908C159.585 144.566 160.011 146.406 161.015 147.759C161.117 147.901 161.228 148.037 161.348 148.166L170.315 148.094C170.336 148.084 170.355 148.076 170.376 148.065L170.733 148.078C170.72 148.015 170.704 147.951 170.688 147.887V147.881C170.68 147.847 170.669 147.809 170.661 147.778C170.653 147.751 170.648 147.727 170.643 147.706C170.659 147.666 170.674 147.628 170.693 147.588C170.706 147.557 170.72 147.527 170.733 147.495Z" fill="#F0F0F0"/>
<path d="M170.688 147.881C170.685 147.901 170.677 147.92 170.665 147.936C170.653 147.952 170.637 147.965 170.619 147.973C170.6 147.981 170.58 147.984 170.56 147.982C170.54 147.98 170.521 147.973 170.504 147.961C170.136 147.694 169.732 147.48 169.304 147.325C169.301 147.322 169.301 147.325 169.301 147.325C168.761 147.131 168.205 146.983 167.639 146.883C167.634 146.883 167.631 146.88 167.626 146.88C167.397 146.835 167.168 146.795 166.939 146.752C165.826 146.547 164.695 146.3 163.731 145.666C163.339 145.423 163.002 145.1 162.744 144.717C162.485 144.335 162.311 143.903 162.232 143.448C162.091 142.556 162.269 141.659 162.344 140.769C162.349 140.706 162.354 140.639 162.357 140.575C162.362 140.493 162.365 140.413 162.365 140.333C162.392 139.525 162.23 138.723 161.891 137.99C161.455 137.112 160.884 136.309 160.198 135.609C159.843 135.229 159.474 134.862 159.09 134.51H159.087C159.071 134.494 159.058 134.48 159.042 134.467C159.042 134.465 159.039 134.462 159.037 134.459C157.394 132.966 155.53 131.736 153.512 130.811C153.44 130.78 153.365 130.745 153.291 130.713C153.096 130.625 152.902 130.543 152.705 130.46C152.798 130.415 152.894 130.367 152.995 130.324C155.246 131.276 157.324 132.595 159.143 134.228C159.204 134.281 159.266 134.337 159.324 134.393C159.785 134.819 160.223 135.265 160.64 135.732C161.305 136.449 161.844 137.274 162.234 138.171C162.52 138.897 162.647 139.676 162.605 140.455C162.599 140.604 162.589 140.753 162.575 140.905C162.493 141.803 162.309 142.729 162.514 143.626C162.748 144.649 163.542 145.362 164.463 145.799C165.073 146.071 165.713 146.269 166.369 146.39C167.727 146.675 169.13 146.813 170.318 147.543H170.321C170.339 147.556 170.358 147.567 170.374 147.578C170.377 147.578 170.377 147.578 170.377 147.58C170.462 147.631 170.545 147.687 170.624 147.748C170.629 147.751 170.635 147.756 170.64 147.759C170.648 147.764 170.655 147.77 170.661 147.777C170.674 147.791 170.683 147.808 170.687 147.826C170.692 147.844 170.692 147.863 170.688 147.881Z" fill="white"/>
<path d="M159.253 134.484C159.737 133.884 159.992 133.131 159.972 132.361C159.952 131.59 159.659 130.851 159.146 130.277C159.041 130.161 158.856 130.318 158.961 130.434C159.44 130.968 159.713 131.656 159.73 132.374C159.747 133.091 159.507 133.791 159.053 134.347C158.954 134.468 159.155 134.604 159.253 134.484Z" fill="white"/>
<path d="M162.441 140.325C160.876 140.507 159.299 140.092 158.026 139.163C157.9 139.071 157.764 139.272 157.89 139.364C159.216 140.327 160.858 140.756 162.486 140.563C162.641 140.544 162.595 140.306 162.441 140.325Z" fill="white"/>
<path d="M153.528 130.782C153.523 130.792 153.517 130.8 153.512 130.811C153.365 131.081 153.16 131.314 152.912 131.495C152.664 131.675 152.379 131.798 152.077 131.855C152.005 131.785 151.928 131.716 151.851 131.65C151.863 131.642 151.876 131.638 151.891 131.636C152.18 131.604 152.459 131.504 152.702 131.343C152.946 131.183 153.148 130.966 153.291 130.712C153.304 130.691 153.318 130.667 153.328 130.646C153.337 130.633 153.349 130.621 153.362 130.613C153.375 130.604 153.39 130.598 153.406 130.595C153.421 130.592 153.437 130.592 153.453 130.595C153.468 130.599 153.483 130.605 153.496 130.614C153.522 130.633 153.539 130.66 153.545 130.691C153.551 130.723 153.545 130.755 153.528 130.782Z" fill="white"/>
<path d="M19.5062 1.44922C14.7188 1.45462 10.1291 3.35878 6.74395 6.74395C3.35878 10.1291 1.45462 14.7188 1.44922 19.5062V88.7063C1.45462 93.4936 3.35878 98.0833 6.74395 101.468C10.1291 104.854 14.7188 106.758 19.5062 106.763H180.494C185.281 106.758 189.871 104.854 193.256 101.468C196.641 98.0833 198.545 93.4936 198.551 88.7063V19.5062C198.545 14.7188 196.641 10.1291 193.256 6.74395C189.871 3.35878 185.281 1.45462 180.494 1.44922H19.5062Z" fill="white"/>
<path d="M180.494 108.213H19.5062C14.3346 108.207 9.37654 106.15 5.71967 102.493C2.06281 98.836 0.005821 93.8779 0 88.7063V19.5062C0.005821 14.3346 2.06281 9.37654 5.71967 5.71967C9.37654 2.06281 14.3346 0.005821 19.5062 0H180.494C185.665 0.00581748 190.623 2.0628 194.28 5.71967C197.937 9.37654 199.994 14.3346 200 19.5062V88.7063C199.994 93.8779 197.937 98.836 194.28 102.493C190.623 106.15 185.665 108.207 180.494 108.213ZM19.5062 2.89854C15.1031 2.90352 10.8818 4.65485 7.76832 7.76832C4.65485 10.8818 2.90352 15.1031 2.89854 19.5062V88.7063C2.90352 93.1094 4.65485 97.3308 7.76832 100.444C10.8818 103.558 15.1031 105.309 19.5062 105.314H180.494C184.897 105.309 189.118 103.558 192.232 100.444C195.345 97.3308 197.096 93.1094 197.101 88.7063V19.5062C197.096 15.1031 195.345 10.8818 192.232 7.76832C189.118 4.65485 184.897 2.90352 180.494 2.89854H19.5062Z" fill="#E6E6E6"/>
<path d="M100.433 15.7764H23.8723C22.2383 15.7792 20.672 16.4295 19.5166 17.5849C18.3612 18.7404 17.7108 20.3066 17.708 21.9406V56.472C17.7073 56.8383 17.7413 57.2039 17.8095 57.5638C17.8336 57.728 17.8723 57.8875 17.9109 58.0469C18.2616 59.3609 19.0357 60.5227 20.1134 61.3524C21.1911 62.182 22.5122 62.6333 23.8723 62.6363H100.433C100.558 62.6363 100.684 62.6314 100.805 62.6218H100.892V62.6169C100.916 62.6177 100.94 62.6161 100.964 62.6121C100.988 62.6121 101.017 62.6073 101.041 62.6073C101.05 62.6081 101.058 62.6064 101.066 62.6025C101.119 62.5976 101.172 62.5928 101.22 62.588C101.307 62.5735 101.394 62.5638 101.476 62.5493C101.487 62.5454 101.498 62.5437 101.51 62.5445C101.525 62.5371 101.542 62.5338 101.558 62.5348C101.56 62.533 101.562 62.5316 101.565 62.5308C101.567 62.5299 101.57 62.5297 101.573 62.53C101.626 62.5204 101.679 62.5107 101.732 62.4962C101.762 62.4921 101.791 62.4856 101.819 62.4769C101.925 62.4527 102.032 62.4286 102.133 62.3947C102.181 62.3802 102.225 62.3706 102.273 62.3561C102.336 62.3368 102.404 62.3126 102.466 62.2885C102.499 62.2794 102.532 62.2681 102.563 62.2546C102.567 62.2546 102.571 62.2537 102.574 62.252C102.577 62.2503 102.58 62.2479 102.582 62.245C102.722 62.1957 102.859 62.1393 102.993 62.0759C103.109 62.0228 103.22 61.9648 103.331 61.9068C103.375 61.8875 103.413 61.8633 103.457 61.8392C103.468 61.8345 103.477 61.8279 103.486 61.8199C103.597 61.7523 103.708 61.6846 103.814 61.6218C103.819 61.617 103.819 61.6122 103.824 61.6122C103.825 61.6122 103.825 61.612 103.826 61.6118C103.826 61.6116 103.827 61.6112 103.827 61.6108C103.828 61.6103 103.828 61.6098 103.828 61.6092C103.829 61.6086 103.829 61.608 103.829 61.6073C103.942 61.536 104.052 61.4586 104.157 61.3754H104.162C104.191 61.3513 104.215 61.332 104.239 61.3126C104.273 61.2885 104.307 61.2595 104.336 61.2353C104.394 61.187 104.452 61.1387 104.505 61.0904C104.538 61.0656 104.569 61.0382 104.597 61.0083C104.679 60.9358 104.756 60.8585 104.834 60.7812C104.875 60.7418 104.914 60.6999 104.95 60.6556C105.01 60.598 105.066 60.5367 105.119 60.472C105.167 60.4093 105.22 60.3465 105.268 60.2836C105.326 60.2177 105.379 60.1483 105.428 60.0759C105.515 59.96 105.592 59.844 105.669 59.7184C105.732 59.617 105.795 59.5107 105.853 59.4044C105.882 59.3513 105.911 59.2933 105.94 59.2353C105.945 59.2353 105.945 59.2305 105.945 59.2257C105.998 59.1242 106.046 59.0228 106.09 58.9165C106.109 58.873 106.128 58.8344 106.143 58.7909C106.181 58.7088 106.21 58.6218 106.244 58.5349C106.297 58.3754 106.351 58.2112 106.394 58.0469C106.433 57.8875 106.471 57.7281 106.495 57.5638C106.564 57.2039 106.598 56.8384 106.597 56.472V21.9406C106.594 20.3066 105.944 18.7404 104.788 17.5849C103.633 16.4295 102.067 15.7792 100.433 15.7764Z" fill="#6C63FF"/>
<path opacity="0.3" d="M106.597 25.6797H17.708V26.1628H106.597V25.6797Z" fill="white"/>
<path opacity="0.3" d="M106.597 30.9941H17.708V31.4772H106.597V30.9941Z" fill="white"/>
<path opacity="0.3" d="M106.597 36.3076H17.708V36.7907H106.597V36.3076Z" fill="white"/>
<path opacity="0.3" d="M106.597 41.6221H17.708V42.1052H106.597V41.6221Z" fill="white"/>
<path opacity="0.3" d="M106.597 46.9355H17.708V47.4186H106.597V46.9355Z" fill="white"/>
<path opacity="0.3" d="M106.597 52.25H17.708V52.7331H106.597V52.25Z" fill="white"/>
<path opacity="0.3" d="M106.496 57.5635C106.471 57.7277 106.433 57.8871 106.394 58.0466H17.7757C17.7466 57.8869 17.7273 57.7255 17.7178 57.5635H106.496Z" fill="white"/>
<g opacity="0.1">
<path d="M106.597 48.9939V56.4722C106.598 56.8385 106.564 57.204 106.495 57.564C106.471 57.7282 106.433 57.8876 106.394 58.0471C106.351 58.2113 106.297 58.3755 106.244 58.535C106.21 58.6219 106.181 58.7089 106.143 58.791C106.128 58.8345 106.109 58.8731 106.09 58.9166C106.046 59.0229 105.998 59.1243 105.945 59.2258C105.945 59.2306 105.945 59.2354 105.94 59.2354C105.911 59.2934 105.882 59.3514 105.853 59.4045C105.795 59.5108 105.732 59.6171 105.669 59.7185C105.592 59.8441 105.515 59.9601 105.428 60.076C105.379 60.1484 105.326 60.2178 105.268 60.2838C105.22 60.3466 105.167 60.4094 105.119 60.4722C105.066 60.5368 105.01 60.5981 104.95 60.6557C104.914 60.7 104.875 60.7419 104.834 60.7813C104.756 60.8587 104.679 60.9359 104.597 61.0084C104.569 61.0383 104.538 61.0657 104.505 61.0905C104.452 61.1388 104.394 61.1872 104.336 61.2355C104.307 61.2596 104.273 61.2886 104.239 61.3128C104.215 61.3321 104.191 61.3514 104.162 61.3756H104.157C104.052 61.4588 103.942 61.5362 103.829 61.6074C103.829 61.6081 103.829 61.6087 103.828 61.6093C103.828 61.6099 103.828 61.6104 103.827 61.6109C103.827 61.6113 103.826 61.6117 103.826 61.6119C103.825 61.6122 103.825 61.6123 103.824 61.6123C103.819 61.6123 103.819 61.6171 103.814 61.6219C103.747 61.6702 103.674 61.7137 103.602 61.7572C103.563 61.7813 103.524 61.8007 103.486 61.82C103.477 61.8281 103.468 61.8346 103.457 61.8393C103.413 61.8635 103.375 61.8876 103.331 61.9069C103.22 61.9649 103.109 62.0229 102.993 62.076C102.859 62.1394 102.722 62.1958 102.582 62.2451C102.58 62.2481 102.577 62.2504 102.574 62.2521C102.571 62.2538 102.567 62.2547 102.563 62.2548C102.532 62.2682 102.499 62.2795 102.466 62.2886C102.404 62.3127 102.336 62.3369 102.273 62.3562C102.225 62.3707 102.181 62.3804 102.133 62.3949C102.032 62.4287 101.925 62.4528 101.819 62.477C101.791 62.4857 101.762 62.4922 101.732 62.4963C101.679 62.5108 101.626 62.5205 101.573 62.5301C101.57 62.5298 101.567 62.53 101.565 62.5309C101.562 62.5317 101.56 62.5331 101.558 62.5349C101.542 62.5339 101.525 62.5372 101.51 62.5446C101.498 62.5438 101.487 62.5455 101.476 62.5494C101.394 62.5639 101.307 62.5736 101.22 62.5881C101.172 62.5929 101.119 62.5977 101.066 62.6026C101.058 62.6065 101.05 62.6082 101.041 62.6074C100.988 62.6122 100.94 62.6171 100.892 62.6219H100.882C100.829 62.6267 100.776 62.6267 100.723 62.6316C100.626 62.6364 100.529 62.6364 100.433 62.6364H23.8723C22.5122 62.6334 21.1911 62.1822 20.1134 61.3525C19.0357 60.5229 18.2616 59.3611 17.9109 58.047H17.7757C17.7465 57.8873 17.7272 57.726 17.7177 57.5639C17.7129 57.4721 17.708 57.3755 17.708 57.2837V48.8586C18.722 48.8886 19.7275 49.0526 20.6983 49.3466C23.3264 50.1485 25.8819 51.506 28.6259 51.506C28.8433 51.506 29.0703 51.4963 29.2925 51.477C32.1814 51.2354 34.4278 49.4432 36.2974 47.419C36.4471 47.2596 36.5969 47.1002 36.737 46.9359C37.0896 46.5446 37.4278 46.1437 37.7563 45.7475C38.8058 44.4221 39.9821 43.2022 41.2684 42.105C41.4761 41.9359 41.6839 41.7765 41.8964 41.6219C43.1437 40.6917 44.6126 40.1038 46.1573 39.9166C46.3554 39.8973 46.5535 39.8828 46.7515 39.878C48.8192 39.8152 50.7612 40.5591 52.5293 41.6219C52.7853 41.7765 53.0414 41.9359 53.2877 42.105C54.1331 42.6781 54.9475 43.2957 55.7274 43.9552C56.9314 45.0129 58.189 46.0078 59.4955 46.9359C59.5921 47.0036 59.6887 47.0712 59.7853 47.1292C59.9351 47.2306 60.0896 47.3273 60.2442 47.419C61.5676 48.2697 63.0559 48.8311 64.6114 49.0664C64.6645 49.076 64.7225 49.0857 64.7805 49.0905C67.2974 49.3852 69.6404 48.6412 71.7805 47.419C72.0462 47.2644 72.3167 47.105 72.5776 46.9359C74.2493 45.8248 75.8162 44.5636 77.2588 43.1678C77.6355 42.8152 78.0172 42.4577 78.4133 42.105C78.5921 41.9456 78.7708 41.7813 78.9544 41.6219C81.824 39.1002 85.1331 36.791 89.0413 36.791C89.2056 36.791 89.3747 36.7959 89.5438 36.8055C92.3554 36.9408 94.824 38.3031 96.8964 40.0325C97.4985 40.5321 98.0741 41.0626 98.6211 41.6219C98.6452 41.6461 98.6645 41.6654 98.6887 41.6896C98.8239 41.8248 98.9592 41.9649 99.0848 42.105C100.631 43.7234 102.056 45.4528 103.737 46.9359C103.921 47.105 104.109 47.2644 104.302 47.419C104.882 47.9003 105.495 48.3394 106.138 48.733C106.288 48.8248 106.442 48.9118 106.597 48.9939Z" fill="black"/>
</g>
<g opacity="0.1">
<path d="M106.597 41.6942V56.472C106.598 56.8383 106.564 57.2038 106.495 57.5638C106.471 57.728 106.433 57.8874 106.394 58.0469C106.351 58.2111 106.297 58.3754 106.244 58.5348C106.21 58.6217 106.181 58.7087 106.143 58.7908C106.128 58.8343 106.109 58.8729 106.09 58.9164C106.046 59.0227 105.998 59.1241 105.945 59.2256C105.945 59.2304 105.945 59.2352 105.94 59.2352C105.911 59.2932 105.882 59.3512 105.853 59.4043C105.795 59.5106 105.732 59.6169 105.669 59.7183C105.592 59.8439 105.515 59.9599 105.428 60.0758C105.379 60.1482 105.326 60.2176 105.268 60.2836C105.22 60.3464 105.167 60.4092 105.119 60.472C105.066 60.5366 105.01 60.5979 104.95 60.6555C104.914 60.6998 104.875 60.7417 104.834 60.7811C104.756 60.8585 104.679 60.9357 104.597 61.0082C104.569 61.0381 104.538 61.0655 104.505 61.0903C104.452 61.1386 104.394 61.1869 104.336 61.2352C104.307 61.2594 104.273 61.2884 104.239 61.3126C104.215 61.3319 104.191 61.3512 104.162 61.3754H104.157C104.052 61.4586 103.942 61.536 103.829 61.6072C103.829 61.6079 103.829 61.6085 103.828 61.6091C103.828 61.6097 103.828 61.6102 103.827 61.6107C103.827 61.6111 103.826 61.6115 103.826 61.6117C103.825 61.612 103.825 61.6121 103.824 61.6121C103.819 61.6121 103.819 61.6169 103.814 61.6217C103.747 61.67 103.674 61.7135 103.602 61.757C103.563 61.7811 103.524 61.8005 103.486 61.8198C103.477 61.8279 103.468 61.8344 103.457 61.8391C103.413 61.8633 103.375 61.8874 103.331 61.9067C103.22 61.9647 103.109 62.0227 102.993 62.0758C102.859 62.1392 102.722 62.1956 102.582 62.2449C102.58 62.2479 102.577 62.2502 102.574 62.2519C102.571 62.2536 102.567 62.2545 102.563 62.2546C102.532 62.268 102.499 62.2793 102.466 62.2884C102.404 62.3125 102.336 62.3367 102.273 62.356C102.225 62.3705 102.181 62.3802 102.133 62.3947C102.032 62.4285 101.925 62.4526 101.819 62.4768C101.791 62.4855 101.762 62.492 101.732 62.4961C101.679 62.5106 101.626 62.5203 101.573 62.5299C101.57 62.5296 101.567 62.5298 101.565 62.5307C101.562 62.5315 101.56 62.5329 101.558 62.5347C101.542 62.5337 101.525 62.537 101.51 62.5444C101.498 62.5436 101.487 62.5453 101.476 62.5492C101.394 62.5637 101.307 62.5734 101.22 62.5879C101.172 62.5927 101.119 62.5975 101.066 62.6024C101.058 62.6063 101.05 62.608 101.041 62.6072C101.017 62.6072 100.988 62.612 100.964 62.612C100.94 62.616 100.916 62.6176 100.892 62.6168C100.871 62.621 100.85 62.6227 100.829 62.6217H100.805C100.78 62.6265 100.752 62.6265 100.723 62.6313C100.626 62.6362 100.529 62.6362 100.433 62.6362H23.8723C22.5122 62.6332 21.1911 62.182 20.1134 61.3523C19.0357 60.5226 18.2616 59.3609 17.9109 58.0468C17.8723 57.8874 17.8336 57.7279 17.8095 57.5637C17.7413 57.2038 17.7073 56.8382 17.708 56.4719V47.8681C17.8771 47.7232 18.0414 47.5734 18.2056 47.4188C18.3747 47.2594 18.5389 47.1 18.7032 46.9358C20.1422 45.438 21.4527 43.822 22.6211 42.1048C22.6597 42.0517 22.6984 42.0034 22.7322 41.9502C22.8095 41.8391 22.8867 41.7328 22.9689 41.6217C24.1405 39.907 25.4509 38.2913 26.8868 36.7908C27.051 36.6266 27.2153 36.4671 27.3844 36.3077C29.1814 34.6169 31.2297 33.356 33.6452 33.0565C36.9737 32.6411 40.0703 34.1821 42.8095 36.3077C43.0124 36.4671 43.2104 36.6266 43.4085 36.7908C44.3457 37.5541 45.2346 38.385 46.0751 39.2111C46.2974 39.4333 46.5245 39.6556 46.7515 39.8778C47.336 40.4623 47.9351 41.0469 48.5389 41.6217C48.7128 41.786 48.8819 41.9454 49.0558 42.1048C51.4713 44.3416 54.0848 46.3077 57.1911 46.9358C57.4037 46.9792 57.6211 47.0179 57.8384 47.0469C59.0121 47.2031 60.2035 47.1656 61.365 46.9358C61.5583 46.9019 61.7466 46.8584 61.9399 46.8101C64.8481 46.0903 67.5438 44.2788 69.9834 42.1048C70.1573 41.9454 70.336 41.786 70.5099 41.6217C71.7563 40.4671 72.9399 39.2304 74.0462 38.013C74.4133 37.6073 74.7901 37.1966 75.167 36.7908C75.3216 36.6314 75.4713 36.472 75.6211 36.3077C77.2379 34.5457 79.0063 32.9292 80.9061 31.4768C81.1331 31.3077 81.3602 31.1483 81.5872 30.9937C84.1428 29.2498 86.9351 28.129 90.0027 28.3077C92.5341 28.4526 94.8481 29.4961 96.9302 30.9937C97.1428 31.1483 97.3554 31.3077 97.5679 31.4768C99.1524 32.7497 100.598 34.186 101.882 35.7618C102.032 35.9406 102.181 36.1242 102.331 36.3077C102.409 36.3995 102.481 36.4961 102.558 36.5879L102.718 36.7908C103.998 38.3899 105.23 40.0517 106.539 41.6217L106.597 41.6942Z" fill="black"/>
</g>
<g opacity="0.1">
<path d="M106.597 35.5928V56.4721C106.598 56.8384 106.564 57.204 106.495 57.5639C106.471 57.7281 106.433 57.8875 106.394 58.047C106.351 58.2112 106.297 58.3755 106.244 58.5349C106.21 58.6218 106.181 58.7088 106.143 58.7909C106.128 58.8344 106.109 58.873 106.09 58.9165C106.046 59.0228 105.998 59.1242 105.945 59.2257C105.945 59.2305 105.945 59.2353 105.94 59.2353C105.911 59.2933 105.882 59.3513 105.853 59.4044C105.795 59.5107 105.732 59.617 105.669 59.7184C105.592 59.844 105.515 59.96 105.428 60.076C105.379 60.1483 105.326 60.2177 105.268 60.2837C105.22 60.3465 105.167 60.4093 105.119 60.4721C105.066 60.5367 105.01 60.598 104.95 60.6556C104.914 60.6999 104.875 60.7418 104.834 60.7812C104.756 60.8586 104.679 60.9358 104.597 61.0083C104.569 61.0382 104.538 61.0657 104.505 61.0904C104.452 61.1387 104.394 61.1871 104.336 61.2354C104.307 61.2595 104.273 61.2885 104.239 61.3127C104.215 61.332 104.191 61.3513 104.162 61.3755H104.157C104.052 61.4587 103.942 61.5361 103.829 61.6073C103.829 61.608 103.829 61.6086 103.828 61.6092C103.828 61.6098 103.828 61.6103 103.827 61.6108C103.827 61.6112 103.826 61.6116 103.826 61.6118C103.825 61.6121 103.825 61.6122 103.824 61.6122C103.819 61.6122 103.819 61.617 103.814 61.6218C103.747 61.6702 103.674 61.7136 103.602 61.7571C103.563 61.7813 103.524 61.8006 103.486 61.8199C103.477 61.828 103.468 61.8345 103.457 61.8392C103.413 61.8634 103.375 61.8875 103.331 61.9068C103.22 61.9648 103.109 62.0228 102.993 62.0759C102.859 62.1393 102.722 62.1957 102.582 62.245C102.58 62.248 102.577 62.2504 102.574 62.252C102.571 62.2537 102.567 62.2546 102.563 62.2547C102.532 62.2681 102.499 62.2794 102.466 62.2885C102.404 62.3126 102.336 62.3368 102.273 62.3561C102.225 62.3706 102.181 62.3803 102.133 62.3948C102.032 62.4286 101.925 62.4527 101.819 62.4769C101.791 62.4856 101.762 62.4921 101.732 62.4962C101.679 62.5107 101.626 62.5204 101.573 62.53C101.57 62.5297 101.567 62.53 101.565 62.5308C101.562 62.5316 101.56 62.533 101.558 62.5348C101.542 62.5338 101.525 62.5371 101.51 62.5445C101.498 62.5437 101.487 62.5454 101.476 62.5494C101.394 62.5638 101.307 62.5735 101.22 62.588C101.172 62.5928 101.119 62.5976 101.066 62.6025C101.058 62.6064 101.05 62.6081 101.041 62.6073C101.017 62.6073 100.988 62.6122 100.964 62.6122C100.94 62.6161 100.916 62.6177 100.892 62.6169C100.889 62.6196 100.886 62.6213 100.882 62.6218H100.805C100.684 62.6315 100.558 62.6363 100.433 62.6363H23.8723C22.5122 62.6333 21.1911 62.1821 20.1134 61.3524C19.0357 60.5228 18.2616 59.361 17.9109 58.0469C17.8723 57.8875 17.8336 57.7281 17.8095 57.5638C17.7413 57.2039 17.7073 56.8383 17.708 56.472V43.9986C18.1959 43.3658 18.6855 42.7346 19.1766 42.1049C19.3022 41.9407 19.4278 41.7812 19.5534 41.6218C20.2153 40.7716 20.8819 39.931 21.5679 39.1098C22.2249 38.3223 22.9158 37.5445 23.6356 36.7909C23.7902 36.6315 23.9447 36.4672 24.1042 36.3078C25.9368 34.3985 28.0417 32.7706 30.3505 31.4769C30.6646 31.303 30.9834 31.1436 31.3071 30.9938C33.0211 30.1755 34.8755 29.6918 36.7708 29.5687C39.2571 29.4445 41.7358 29.9339 43.9882 30.9938C44.3264 31.1387 44.6597 31.303 44.9882 31.4769C47.3505 32.6943 49.5679 34.3996 51.6452 36.3078C51.824 36.4624 51.993 36.6267 52.167 36.7909C53.8143 38.3368 55.3747 39.9938 56.8626 41.6218C56.9737 41.7426 57.0848 41.8682 57.1959 41.989C57.2298 42.0276 57.2684 42.0663 57.3022 42.1049C58.7515 43.6991 60.2974 45.3127 61.9399 46.8102C61.9834 46.8537 62.0317 46.8924 62.08 46.9359C62.2587 47.1001 62.4375 47.2595 62.6211 47.4189C63.2684 47.9938 63.9351 48.5445 64.6114 49.0663C66.2143 50.3287 67.9607 51.3973 69.8143 52.2499C70.2056 52.4286 70.6017 52.588 71.0027 52.733C73.2115 53.5765 75.5952 53.8587 77.9399 53.5542C79.0169 53.4051 80.0725 53.1294 81.0848 52.733C81.4713 52.588 81.8481 52.4238 82.2201 52.2499C84.6694 51.0904 86.8819 49.3368 88.9786 47.4189C89.1525 47.2595 89.3264 47.1001 89.5003 46.9359C90.6935 45.8151 91.8529 44.6508 92.9979 43.5252C93.481 43.0518 93.9737 42.5735 94.481 42.1049C94.6549 41.9455 94.8336 41.7861 95.0124 41.6218C95.6211 41.0759 96.2491 40.5397 96.8964 40.0325C98.4788 38.7375 100.219 37.6483 102.075 36.7909C102.235 36.7184 102.399 36.6508 102.558 36.588C102.805 36.4866 103.051 36.3948 103.297 36.3078C104.361 35.9266 105.471 35.6862 106.597 35.5928Z" fill="black"/>
</g>
<path d="M36.7901 32.4435C37.5905 32.4435 38.2394 31.7946 38.2394 30.9942C38.2394 30.1938 37.5905 29.5449 36.7901 29.5449C35.9897 29.5449 35.3408 30.1938 35.3408 30.9942C35.3408 31.7946 35.9897 32.4435 36.7901 32.4435Z" fill="white"/>
<path d="M59.0118 48.3849C59.8122 48.3849 60.4611 47.736 60.4611 46.9356C60.4611 46.1352 59.8122 45.4863 59.0118 45.4863C58.2114 45.4863 57.5625 46.1352 57.5625 46.9356C57.5625 47.736 58.2114 48.3849 59.0118 48.3849Z" fill="white"/>
<path d="M88.9639 37.7569C89.7643 37.7569 90.4132 37.1081 90.4132 36.3077C90.4132 35.5073 89.7643 34.8584 88.9639 34.8584C88.1635 34.8584 87.5146 35.5073 87.5146 36.3077C87.5146 37.1081 88.1635 37.7569 88.9639 37.7569Z" fill="white"/>
<path d="M154.887 48.6729H120.713C120.551 48.6726 120.391 48.7043 120.241 48.7662C120.091 48.8281 119.955 48.9188 119.84 49.0334C119.726 49.1479 119.635 49.2839 119.573 49.4336C119.51 49.5833 119.479 49.7438 119.479 49.9059C119.479 50.068 119.51 50.2285 119.573 50.3782C119.635 50.5279 119.726 50.6639 119.84 50.7785C119.955 50.893 120.091 50.9838 120.241 51.0456C120.391 51.1075 120.551 51.1392 120.713 51.139H154.887C155.214 51.139 155.527 51.0091 155.759 50.7778C155.99 50.5466 156.12 50.2329 156.12 49.9059C156.12 49.5789 155.99 49.2653 155.759 49.034C155.527 48.8028 155.214 48.6729 154.887 48.6729Z" fill="#E6E6E6"/>
<path d="M154.886 67.3457H120.713C120.386 67.3457 120.072 67.4756 119.841 67.7069C119.609 67.9381 119.479 68.2517 119.479 68.5788C119.479 68.9058 119.609 69.2194 119.841 69.4507C120.072 69.6819 120.386 69.8118 120.713 69.8118H154.886C155.213 69.8118 155.527 69.6819 155.758 69.4507C155.989 69.2194 156.119 68.9058 156.119 68.5788C156.119 68.2517 155.989 67.9381 155.758 67.7069C155.527 67.4756 155.213 67.3457 154.886 67.3457Z" fill="#E6E6E6"/>
<path d="M154.886 86.0176H120.713C120.386 86.0176 120.072 86.1475 119.841 86.3787C119.609 86.61 119.479 86.9236 119.479 87.2506C119.479 87.5777 119.609 87.8913 119.841 88.1225C120.072 88.3538 120.386 88.4837 120.713 88.4837H154.886C155.213 88.4837 155.527 88.3538 155.758 88.1225C155.989 87.8913 156.119 87.5777 156.119 87.2506C156.119 86.9236 155.989 86.61 155.758 86.3787C155.527 86.1475 155.213 86.0176 154.886 86.0176Z" fill="#E6E6E6"/>
<path d="M175.593 53.0776C177.294 53.0776 178.672 51.699 178.672 49.9983C178.672 48.2976 177.294 46.9189 175.593 46.9189C173.892 46.9189 172.514 48.2976 172.514 49.9983C172.514 51.699 173.892 53.0776 175.593 53.0776Z" fill="#F2F2F2"/>
<path d="M175.173 51.6009C175.12 51.6009 175.067 51.5885 175.02 51.5647C174.972 51.5409 174.931 51.5064 174.899 51.4638L174.059 50.3437C174.032 50.3077 174.012 50.2667 174.001 50.2231C173.99 50.1795 173.987 50.1342 173.994 50.0896C174 50.045 174.015 50.0021 174.038 49.9634C174.061 49.9247 174.091 49.8908 174.127 49.8638C174.163 49.8368 174.204 49.8172 174.248 49.806C174.291 49.7948 174.337 49.7924 174.381 49.7988C174.426 49.8052 174.469 49.8203 174.508 49.8433C174.546 49.8662 174.58 49.8966 174.607 49.9327L175.157 50.6654L176.568 48.548C176.619 48.4724 176.697 48.42 176.786 48.4022C176.875 48.3843 176.968 48.4026 177.043 48.453C177.119 48.5034 177.171 48.5818 177.189 48.6709C177.207 48.76 177.189 48.8525 177.138 48.9281L175.458 51.4483C175.428 51.4939 175.387 51.5315 175.339 51.5581C175.291 51.5846 175.237 51.5992 175.183 51.6008L175.173 51.6009Z" fill="white"/>
<path d="M175.593 71.7505C177.294 71.7505 178.672 70.3718 178.672 68.6711C178.672 66.9705 177.294 65.5918 175.593 65.5918C173.892 65.5918 172.514 66.9705 172.514 68.6711C172.514 70.3718 173.892 71.7505 175.593 71.7505Z" fill="#F2F2F2"/>
<path d="M175.173 70.2737C175.12 70.2737 175.067 70.2613 175.02 70.2376C174.972 70.2138 174.931 70.1792 174.899 70.1367L174.059 69.0165C174.032 68.9806 174.012 68.9396 174.001 68.896C173.99 68.8524 173.987 68.807 173.994 68.7624C174 68.7179 174.015 68.675 174.038 68.6363C174.061 68.5975 174.091 68.5637 174.127 68.5367C174.163 68.5097 174.204 68.49 174.248 68.4789C174.291 68.4677 174.337 68.4652 174.381 68.4716C174.426 68.478 174.469 68.4931 174.508 68.5161C174.546 68.5391 174.58 68.5695 174.607 68.6055L175.157 69.3383L176.568 67.2209C176.593 67.1835 176.625 67.1513 176.663 67.1263C176.7 67.1013 176.742 67.0838 176.786 67.075C176.83 67.0662 176.876 67.0661 176.92 67.0749C176.964 67.0836 177.006 67.1009 177.043 67.1259C177.081 67.1508 177.113 67.1829 177.138 67.2203C177.163 67.2577 177.18 67.2996 177.189 67.3437C177.198 67.3878 177.198 67.4332 177.189 67.4774C177.181 67.5215 177.163 67.5635 177.138 67.6009L175.458 70.1212C175.428 70.1668 175.387 70.2044 175.339 70.2309C175.291 70.2574 175.237 70.2721 175.183 70.2736L175.173 70.2737Z" fill="white"/>
<path d="M175.593 90.4223C177.294 90.4223 178.672 89.0437 178.672 87.343C178.672 85.6423 177.294 84.2637 175.593 84.2637C173.892 84.2637 172.514 85.6423 172.514 87.343C172.514 89.0437 173.892 90.4223 175.593 90.4223Z" fill="#F2F2F2"/>
<path d="M154.886 30.001H120.713C120.386 30.001 120.072 30.1309 119.841 30.3621C119.609 30.5934 119.479 30.907 119.479 31.234C119.479 31.5611 119.609 31.8747 119.841 32.1059C120.072 32.3372 120.386 32.4671 120.713 32.4671H154.886C155.213 32.4671 155.527 32.3372 155.758 32.1059C155.989 31.8747 156.119 31.5611 156.119 31.234C156.119 30.907 155.989 30.5934 155.758 30.3621C155.527 30.1309 155.213 30.001 154.886 30.001Z" fill="#E6E6E6"/>
<path d="M175.593 34.4057C177.294 34.4057 178.672 33.0271 178.672 31.3264C178.672 29.6257 177.294 28.2471 175.593 28.2471C173.892 28.2471 172.514 29.6257 172.514 31.3264C172.514 33.0271 173.892 34.4057 175.593 34.4057Z" fill="#6C63FF"/>
<path d="M175.173 32.929C175.12 32.929 175.067 32.9166 175.02 32.8928C174.972 32.869 174.931 32.8345 174.899 32.792L174.059 31.6718C174.032 31.6358 174.012 31.5949 174.001 31.5513C173.99 31.5077 173.987 31.4623 173.994 31.4177C174 31.3731 174.015 31.3303 174.038 31.2915C174.061 31.2528 174.091 31.2189 174.127 31.1919C174.163 31.1649 174.204 31.1453 174.248 31.1341C174.291 31.123 174.337 31.1205 174.381 31.1269C174.426 31.1333 174.469 31.1484 174.508 31.1714C174.546 31.1944 174.58 31.2247 174.607 31.2608L175.157 31.9936L176.568 29.8762C176.593 29.8387 176.625 29.8066 176.663 29.7816C176.7 29.7565 176.742 29.7391 176.786 29.7303C176.83 29.7215 176.876 29.7214 176.92 29.7301C176.964 29.7389 177.006 29.7562 177.043 29.7812C177.081 29.8061 177.113 29.8382 177.138 29.8756C177.163 29.9129 177.18 29.9549 177.189 29.999C177.198 30.0431 177.198 30.0885 177.189 30.1326C177.181 30.1768 177.163 30.2187 177.138 30.2562L175.458 32.7764C175.428 32.822 175.387 32.8597 175.339 32.8862C175.291 32.9127 175.237 32.9273 175.183 32.9289L175.173 32.929Z" fill="white"/>
<path d="M165.376 34.4057C167.077 34.4057 168.456 33.0271 168.456 31.3264C168.456 29.6257 167.077 28.2471 165.376 28.2471C163.676 28.2471 162.297 29.6257 162.297 31.3264C162.297 33.0271 163.676 34.4057 165.376 34.4057Z" fill="#F2F2F2"/>
<path d="M165.376 53.0776C167.077 53.0776 168.456 51.699 168.456 49.9983C168.456 48.2976 167.077 46.9189 165.376 46.9189C163.676 46.9189 162.297 48.2976 162.297 49.9983C162.297 51.699 163.676 53.0776 165.376 53.0776Z" fill="#F2F2F2"/>
<path d="M165.376 71.7505C167.077 71.7505 168.456 70.3718 168.456 68.6711C168.456 66.9705 167.077 65.5918 165.376 65.5918C163.676 65.5918 162.297 66.9705 162.297 68.6711C162.297 70.3718 163.676 71.7505 165.376 71.7505Z" fill="#F2F2F2"/>
<path d="M165.376 90.4223C167.077 90.4223 168.456 89.0437 168.456 87.343C168.456 85.6423 167.077 84.2637 165.376 84.2637C163.676 84.2637 162.297 85.6423 162.297 87.343C162.297 89.0437 163.676 90.4223 165.376 90.4223Z" fill="#F2F2F2"/>
<path d="M175.173 88.9456C175.12 88.9456 175.067 88.9332 175.02 88.9094C174.972 88.8856 174.931 88.8511 174.899 88.8086L174.059 87.6884C174.032 87.6524 174.012 87.6115 174.001 87.5679C173.99 87.5243 173.987 87.479 173.994 87.4345C174 87.3899 174.015 87.3471 174.038 87.3084C174.061 87.2697 174.091 87.2359 174.127 87.2089C174.163 87.1819 174.204 87.1623 174.248 87.1511C174.291 87.1399 174.337 87.1375 174.381 87.1438C174.426 87.1502 174.469 87.1653 174.507 87.1882C174.546 87.2111 174.58 87.2414 174.607 87.2774L175.156 88.0102L176.568 85.8928C176.618 85.8172 176.697 85.7647 176.786 85.7469C176.875 85.7291 176.967 85.7474 177.043 85.7978C177.119 85.8482 177.171 85.9265 177.189 86.0156C177.207 86.1047 177.188 86.1972 177.138 86.2728L175.458 88.7931C175.427 88.8386 175.387 88.8763 175.339 88.9028C175.291 88.9293 175.237 88.9439 175.182 88.9455L175.173 88.9456Z" fill="white"/>
<path d="M170.734 147.495C170.735 147.512 170.732 147.53 170.725 147.546C170.718 147.562 170.707 147.576 170.694 147.588C170.673 147.604 170.648 147.614 170.622 147.617C170.596 147.623 170.568 147.618 170.545 147.603C170.522 147.589 170.506 147.566 170.5 147.54C170.132 146.304 169.232 145.357 168.38 144.427C167.613 143.594 166.86 142.715 166.474 141.632C166.307 141.201 166.232 140.74 166.256 140.279C166.28 139.818 166.401 139.367 166.612 138.956C166.745 138.71 166.899 138.477 167.073 138.258C167.454 137.774 167.906 137.342 168.314 136.884C168.356 136.836 168.399 136.786 168.439 136.738C168.495 136.677 168.545 136.613 168.593 136.549C169.101 135.921 169.454 135.182 169.624 134.392C169.805 133.429 169.833 132.443 169.706 131.471C169.653 130.955 169.579 130.442 169.485 129.932C169.48 129.908 169.477 129.887 169.472 129.866C169.061 127.681 168.314 125.573 167.257 123.617C167.217 123.545 167.179 123.473 167.139 123.404C166.969 123.095 166.793 122.791 166.607 122.493C166.671 122.448 166.74 122.405 166.809 122.365C167.42 123.354 167.951 124.389 168.399 125.462C168.977 126.838 169.412 128.27 169.696 129.735C169.714 129.815 169.727 129.898 169.741 129.978C169.853 130.593 169.935 131.216 169.986 131.836C170.086 132.809 170.019 133.793 169.789 134.744C169.58 135.498 169.21 136.198 168.705 136.796C168.615 136.911 168.519 137.023 168.417 137.132C168.013 137.574 167.565 138.002 167.201 138.484C167.014 138.727 166.856 138.989 166.729 139.267C166.301 140.226 166.503 141.275 166.977 142.175C167.834 143.812 169.469 144.928 170.34 146.533C170.501 146.829 170.631 147.14 170.729 147.463C170.732 147.473 170.733 147.484 170.734 147.495Z" fill="white"/>
<path d="M169.63 130.006C170.378 129.818 171.034 129.371 171.482 128.744C171.931 128.117 172.141 127.351 172.077 126.582C172.063 126.427 171.821 126.441 171.835 126.597C171.896 127.312 171.7 128.025 171.281 128.608C170.863 129.191 170.25 129.606 169.552 129.777C169.401 129.814 169.48 130.043 169.63 130.006Z" fill="white"/>
<path d="M168.659 136.588C167.299 135.791 166.29 134.511 165.833 133.003C165.788 132.854 165.558 132.932 165.604 133.081C166.082 134.649 167.135 135.979 168.551 136.806C168.686 136.884 168.793 136.667 168.659 136.588Z" fill="white"/>
<path d="M167.285 123.604C167.274 123.609 167.266 123.612 167.255 123.617C166.776 123.836 166.23 123.862 165.732 123.689C165.754 123.611 165.782 123.534 165.815 123.46C166.247 123.608 166.72 123.588 167.138 123.404C167.162 123.396 167.184 123.385 167.207 123.375C167.238 123.364 167.271 123.366 167.3 123.38C167.329 123.394 167.351 123.419 167.362 123.449C167.371 123.48 167.368 123.513 167.353 123.542C167.339 123.57 167.315 123.592 167.285 123.604Z" fill="white"/>
<path d="M154.013 82.8045C154.246 82.5242 154.414 82.1962 154.507 81.8436C154.599 81.4911 154.613 81.1226 154.548 80.7641C154.482 80.4056 154.339 80.0658 154.128 79.7687C153.917 79.4716 153.643 79.2243 153.326 79.0443L154.934 70.333L150.695 72.1276L149.818 80.1249C149.551 80.6773 149.496 81.3085 149.663 81.8988C149.83 82.4892 150.208 82.9977 150.725 83.328C151.243 83.6583 151.863 83.7874 152.469 83.6909C153.075 83.5945 153.624 83.2791 154.013 82.8045Z" fill="#FFB6B6"/>
<path d="M156.6 57.021L155.253 52.492L145.753 37.6694C145.225 37.0523 144.593 36.5315 143.887 36.1305C142.482 35.3279 140.846 35.0308 139.249 35.2888C137.652 35.5467 136.192 36.3441 135.112 37.548C134.033 38.7519 133.398 40.2896 133.314 41.9048C133.231 43.5199 133.703 45.1149 134.653 46.424C134.848 46.6975 135.065 46.9556 135.3 47.1961L147.604 59.8859L148.304 60.6101L149.411 63.4111L149.848 76.1835L150.239 76.2767L153.687 77.0888L154.169 77.2033L154.976 73.031L155.482 71.0367C155.912 69.336 156.13 67.5884 156.129 65.8341C156.129 65.2936 156.11 64.7504 156.068 64.2099L156.6 57.021Z" fill="#3F3D56"/>
<path d="M143.54 145.096H140.241L138.672 132.371L143.541 132.371L143.54 145.096Z" fill="#FFB6B6"/>
<path d="M143.453 144.017L139.933 142.588L139.829 142.545L137.885 144.017C136.819 144.017 135.793 144.429 135.023 145.167C134.252 145.904 133.797 146.911 133.75 147.977C133.745 148.035 133.745 148.096 133.745 148.158V148.293H144.382V144.017H143.453Z" fill="#2F2E41"/>
<path d="M137.258 138.515L134.414 140.188L126.608 130.018L130.805 127.549L137.258 138.515Z" fill="#FFB6B6"/>
<path d="M139.222 140.192L138.836 139.534L137.438 137.159L136.711 137.588L136.637 137.63L132.877 138.184L132.765 138.2L131.839 140.455C131.37 140.731 130.96 141.096 130.632 141.53C130.305 141.965 130.066 142.459 129.929 142.985C129.793 143.512 129.761 144.06 129.837 144.598C129.912 145.137 130.093 145.655 130.369 146.124L130.438 146.239L139.605 140.844L139.222 140.192Z" fill="#2F2E41"/>
<path d="M147.718 67.3057C149.265 71.9704 149.101 77.0339 147.346 82.4684L146.888 101.15L145.417 112.934C146.304 115.243 146.759 117.696 146.76 120.17C146.753 126.653 146.317 135.865 144.107 140.192H138.876L137.696 120.922L136.287 111.234L136.113 100.851L135.961 91.7964L130.274 100.113L124.747 108.195L130.24 117.461L135.033 132.371L129.974 136.631L124.235 125.751L121.454 122.52L113.861 106.083L114.544 103.795C115.949 99.0821 117.99 94.5827 120.61 90.4209L128.162 72.8932L147.718 67.3057Z" fill="#2F2E41"/>
<path d="M148.388 65.7487L147.526 64.0234L147.603 59.8857L147.861 45.8966C147.892 44.0847 147.556 42.2852 146.873 40.6067C146.19 38.9282 145.174 37.4055 143.886 36.1303C143.122 35.3689 142.267 34.7045 141.341 34.152L139.487 33.0444L138.55 30.6641L129.907 30.8744L129.889 33.1828L129.881 33.9949L126.784 38.9313L126.787 38.9526L126.851 47.9361L126.979 65.8179L127.833 68.5897L126.542 71.8167L127.229 73.8722L127.777 73.7843L146.25 70.8315C147.09 70.5622 147.803 69.9961 148.255 69.2393C148.346 69.0914 148.426 68.9365 148.492 68.7761C148.694 68.2937 148.789 67.7735 148.771 67.251C148.753 66.7286 148.622 66.2161 148.388 65.7487Z" fill="#3F3D56"/>
<path d="M133.436 27.703C137.774 27.703 141.29 24.1869 141.29 19.8496C141.29 15.5122 137.774 11.9961 133.436 11.9961C129.099 11.9961 125.583 15.5122 125.583 19.8496C125.583 24.1869 129.099 27.703 133.436 27.703Z" fill="#FFB6B6"/>
<path d="M138.322 26.357C139.151 25.7734 139.991 24.6624 140.551 23.8307C141.292 22.7373 141.796 21.5003 142.029 20.1999C142.262 18.8995 142.219 17.5647 141.903 16.2819C141.8 15.7687 141.56 15.2931 141.208 14.9064C141.027 14.7176 140.792 14.5907 140.535 14.5438C140.279 14.497 140.014 14.5325 139.778 14.6454C139.897 14.3138 139.946 13.9614 139.923 13.61C139.901 13.2586 139.806 12.9156 139.645 12.6021C139.319 11.9764 138.852 11.4352 138.281 11.0215C137.187 10.2033 135.893 9.69645 134.534 9.55466C133.176 9.41287 131.805 9.64145 130.566 10.2162C130.078 10.4502 130.86 8.68367 130.349 8.86004C129.841 9.0646 129.274 9.06248 128.769 8.85413C128.282 8.61774 126.702 10.0841 126.88 9.57362C126.516 9.74507 126.201 10.0059 125.965 10.3318C125.728 10.6577 125.579 11.038 125.529 11.4375C125.479 11.8369 125.532 12.2424 125.681 12.6162C125.83 12.9899 126.072 13.3199 126.383 13.5752C126.793 13.9117 127.301 14.1017 127.749 14.386C128.534 14.9222 129.096 15.7273 129.328 16.6493C129.56 17.5712 129.446 18.5462 129.009 19.3902C129.471 19.0837 129.981 18.854 130.517 18.71C130.786 18.6404 131.067 18.636 131.338 18.6972C131.609 18.7585 131.862 18.8835 132.074 19.0619C132.253 19.2607 132.389 19.4938 132.474 19.7471C132.559 20.0003 132.592 20.2683 132.57 20.5345C132.56 21.0677 132.44 21.5944 132.433 22.1276C132.413 23.6921 131.617 26.6771 132.841 27.4916C133.807 28.1344 137.189 27.1538 138.322 26.357Z" fill="#2F2E41"/>
<path d="M89.8078 38.9515C89.9936 39.265 90.2459 39.5339 90.5469 39.7394C90.8479 39.9448 91.1903 40.0818 91.55 40.1406C91.9096 40.1994 92.2778 40.1786 92.6285 40.0797C92.9793 39.9809 93.3041 39.8063 93.5801 39.5683L101.245 44.01L100.979 39.4143L93.7412 35.901C93.3107 35.4639 92.7348 35.1998 92.1226 35.1589C91.5104 35.118 90.9044 35.3031 90.4196 35.6791C89.9347 36.0551 89.6047 36.5959 89.4919 37.199C89.3792 37.8022 89.4916 38.4257 89.8078 38.9515Z" fill="#FFB6B6"/>
<path d="M139.304 37.5763C139.007 36.647 138.521 35.7892 137.876 35.0568C137.231 34.3245 136.442 33.7335 135.558 33.3209C134.674 32.9083 133.714 32.683 132.738 32.6593C131.763 32.6356 130.793 32.8139 129.89 33.1831C129.804 33.2177 129.719 33.255 129.634 33.2923L112.631 41.0323L106.012 40.2469L97.4436 37.2542L97.2252 37.5923L95.3002 40.5664L95.0312 40.9817L104.222 46.416L105.197 46.6184C106.046 46.794 106.851 47.1353 107.568 47.6228C108.284 48.1103 108.897 48.7344 109.372 49.4594L112.934 50.6309L126.852 47.9364L134.653 46.424L135.095 46.3388C136.432 45.8243 137.581 44.9171 138.393 43.7365C139.204 42.556 139.639 41.1574 139.64 39.725C139.64 38.9957 139.527 38.2708 139.304 37.5763Z" fill="#3F3D56"/>
<path d="M178.87 148.611H86.2155C86.1314 148.611 86.0507 148.577 85.9913 148.518C85.9318 148.458 85.8984 148.378 85.8984 148.294C85.8984 148.21 85.9318 148.129 85.9913 148.069C86.0507 148.01 86.1314 147.977 86.2155 147.977H178.87C178.954 147.977 179.034 148.01 179.094 148.069C179.153 148.129 179.187 148.21 179.187 148.294C179.187 148.378 179.153 148.458 179.094 148.518C179.034 148.577 178.954 148.611 178.87 148.611Z" fill="#CCCCCC"/>
<path d="M79.1446 74.5352H22.8719C22.5452 74.5356 22.232 74.6658 22.0011 74.897C21.7703 75.1281 21.6406 75.4415 21.6406 75.7682C21.6406 76.0949 21.7703 76.4083 22.0011 76.6395C22.232 76.8707 22.5452 77.0008 22.8719 77.0013H79.1446C79.3067 77.0015 79.4672 76.9698 79.6171 76.9079C79.7669 76.8461 79.903 76.7553 80.0177 76.6408C80.1324 76.5262 80.2234 76.3902 80.2855 76.2405C80.3475 76.0908 80.3795 75.9303 80.3795 75.7682C80.3795 75.6061 80.3475 75.4457 80.2855 75.2959C80.2234 75.1462 80.1324 75.0102 80.0177 74.8957C79.903 74.7811 79.7669 74.6904 79.6171 74.6285C79.4672 74.5666 79.3067 74.5349 79.1446 74.5352Z" fill="#E6E6E6"/>
<path d="M99.8518 78.9389C101.552 78.9389 102.931 77.5603 102.931 75.8596C102.931 74.1589 101.552 72.7803 99.8518 72.7803C98.1511 72.7803 96.7725 74.1589 96.7725 75.8596C96.7725 77.5603 98.1511 78.9389 99.8518 78.9389Z" fill="#6C63FF"/>
<path d="M99.4316 77.4622C99.3784 77.4622 99.326 77.4498 99.2784 77.426C99.2309 77.4023 99.1895 77.3677 99.1576 77.3252L98.3175 76.205C98.2905 76.169 98.2709 76.1281 98.2597 76.0845C98.2486 76.0409 98.2461 75.9956 98.2525 75.9511C98.2588 75.9065 98.2739 75.8637 98.2968 75.825C98.3197 75.7863 98.3501 75.7525 98.386 75.7255C98.422 75.6985 98.463 75.6789 98.5065 75.6677C98.5501 75.6565 98.5955 75.6541 98.64 75.6604C98.6845 75.6668 98.7274 75.6819 98.7661 75.7048C98.8048 75.7277 98.8386 75.758 98.8656 75.794L99.4152 76.5268L100.827 74.4094C100.852 74.3719 100.884 74.3398 100.921 74.3148C100.959 74.2897 101.001 74.2723 101.045 74.2635C101.089 74.2547 101.134 74.2546 101.178 74.2633C101.222 74.2721 101.264 74.2894 101.302 74.3144C101.339 74.3393 101.371 74.3714 101.396 74.4088C101.421 74.4461 101.439 74.4881 101.448 74.5322C101.457 74.5763 101.457 74.6217 101.448 74.6659C101.439 74.71 101.422 74.752 101.397 74.7894L99.7166 77.3097C99.6863 77.3552 99.6454 77.3929 99.5974 77.4194C99.5495 77.4459 99.4959 77.4606 99.4411 77.4621L99.4316 77.4622Z" fill="white"/>
<path d="M89.635 78.9389C91.3357 78.9389 92.7143 77.5603 92.7143 75.8596C92.7143 74.1589 91.3357 72.7803 89.635 72.7803C87.9343 72.7803 86.5557 74.1589 86.5557 75.8596C86.5557 77.5603 87.9343 78.9389 89.635 78.9389Z" fill="#F2F2F2"/>
<path d="M78.879 89.4453H22.6063C22.2795 89.4458 21.9664 89.5759 21.7355 89.8071C21.5047 90.0383 21.375 90.3517 21.375 90.6784C21.375 91.0051 21.5047 91.3184 21.7355 91.5496C21.9664 91.7808 22.2795 91.911 22.6063 91.9114H78.879C79.206 91.9114 79.5197 91.7815 79.7509 91.5503C79.9821 91.319 80.1121 91.0054 80.1121 90.6784C80.1121 90.3513 79.9821 90.0377 79.7509 89.8065C79.5197 89.5752 79.206 89.4453 78.879 89.4453Z" fill="#E6E6E6"/>
<path d="M99.5852 93.8501C101.286 93.8501 102.665 92.4714 102.665 90.7707C102.665 89.0701 101.286 87.6914 99.5852 87.6914C97.8845 87.6914 96.5059 89.0701 96.5059 90.7707C96.5059 92.4714 97.8845 93.8501 99.5852 93.8501Z" fill="#F2F2F2"/>
<path d="M99.165 92.3733C99.1118 92.3733 99.0594 92.3609 99.0118 92.3372C98.9643 92.3134 98.9229 92.2788 98.891 92.2363L98.0509 91.1161C97.9964 91.0435 97.973 90.9521 97.9859 90.8622C97.9987 90.7723 98.0468 90.6911 98.1195 90.6366C98.1921 90.5821 98.2835 90.5587 98.3734 90.5716C98.4633 90.5844 98.5445 90.6325 98.599 90.7051L99.1486 91.4379L100.56 89.3205C100.585 89.2831 100.617 89.2509 100.655 89.2259C100.692 89.2009 100.734 89.1834 100.778 89.1746C100.822 89.1658 100.868 89.1658 100.912 89.1745C100.956 89.1832 100.998 89.2005 101.035 89.2255C101.073 89.2505 101.105 89.2825 101.13 89.3199C101.155 89.3573 101.172 89.3992 101.181 89.4433C101.19 89.4874 101.19 89.5329 101.181 89.577C101.173 89.6211 101.155 89.6631 101.13 89.7005L99.4501 92.2208C99.4197 92.2664 99.3788 92.304 99.3309 92.3305C99.2829 92.357 99.2293 92.3717 99.1745 92.3732L99.165 92.3733Z" fill="white"/>
<path d="M89.3684 93.8501C91.0691 93.8501 92.4477 92.4714 92.4477 90.7707C92.4477 89.0701 91.0691 87.6914 89.3684 87.6914C87.6677 87.6914 86.2891 89.0701 86.2891 90.7707C86.2891 92.4714 87.6677 93.8501 89.3684 93.8501Z" fill="#F2F2F2"/>
</g>
<defs>
<clipPath id="clip0_171_1054">
<rect width="200" height="148.61" fill="white"/>
</clipPath>
</defs>
</svg>
