<svg width="200" height="200" viewBox="0 0 200 200" fill="none" xmlns="http://www.w3.org/2000/svg">
<g opacity="0.7">
<path d="M175 91.6673C175 137.917 143 181.167 100 191.667C57 181.167 25 137.917 25 91.6673V41.6673L100 8.33398L175 41.6673V91.6673ZM100 175.001C131.25 166.667 158.333 129.501 158.333 93.5006V52.5006L100 26.5006L41.6667 52.5006V93.5006C41.6667 129.501 68.75 166.667 100 175.001ZM123.333 91.6673V79.1673C123.333 67.5006 111.667 58.334 100 58.334C88.3333 58.334 76.6667 67.5006 76.6667 79.1673V91.6673C71.6667 91.6673 66.6667 96.6673 66.6667 101.667V130.834C66.6667 136.667 71.6667 141.667 76.6667 141.667H122.5C128.333 141.667 133.333 136.667 133.333 131.667V102.501C133.333 96.6673 128.333 91.6673 123.333 91.6673ZM112.5 91.6673H87.5V79.1673C87.5 72.5006 93.3333 68.334 100 68.334C106.667 68.334 112.5 72.5006 112.5 79.1673V91.6673Z" fill="#7DEFC1"/>
</g>
</svg>
