<svg width="387" height="403" viewBox="0 0 387 403" fill="none" xmlns="http://www.w3.org/2000/svg">
<g clip-path="url(#clip0_133_98)">
<path d="M354.815 344.779L337.094 361.093L351.177 337.463C340.082 317.343 321.936 299.954 321.936 299.954C321.936 299.954 284.289 336.023 284.289 364.375C284.289 392.727 301.144 402.627 321.936 402.627C342.727 402.627 359.582 392.727 359.582 364.375C359.582 358.064 357.715 351.372 354.815 344.779Z" fill="#F2F2F2"/>
<path d="M332.538 361.976V363.374C332.455 379.618 329.715 392.293 324.34 401.218C324.264 401.349 324.181 401.474 324.105 401.605L323.503 401.239L322.928 400.879C328.892 391.241 331.002 377.619 331.078 363.45C331.085 362.993 331.092 362.53 331.085 362.066C331.065 356.068 330.698 350 330.11 344.106C330.068 343.649 330.02 343.186 329.971 342.722C329.155 334.946 327.979 327.515 326.775 321.061C326.692 320.604 326.602 320.147 326.512 319.698C324.43 308.78 322.306 300.872 321.821 299.122C321.766 298.908 321.732 298.79 321.725 298.762L322.382 298.576L322.389 298.569L323.053 298.382C323.06 298.41 323.177 298.804 323.371 299.537C324.111 302.277 326.035 309.714 327.924 319.525C328.007 319.967 328.097 320.424 328.18 320.881C329.162 326.118 330.124 331.971 330.885 338.115C331.078 339.657 331.251 341.179 331.404 342.681C331.459 343.144 331.507 343.608 331.549 344.064C332.185 350.436 332.515 356.407 332.538 361.976Z" fill="white"/>
<path d="M327.923 319.524C327.459 319.586 326.989 319.649 326.511 319.697C325.215 319.831 323.912 319.898 322.609 319.898C317.055 319.905 311.57 318.666 306.558 316.272C306.268 316.639 305.977 317.006 305.68 317.379C310.952 319.953 316.742 321.288 322.609 321.281C324 321.281 325.391 321.207 326.774 321.06C327.245 321.012 327.715 320.949 328.179 320.88C332.005 320.331 335.726 319.205 339.213 317.539C338.916 317.158 338.625 316.784 338.342 316.418C335.041 317.961 331.53 319.007 327.923 319.524Z" fill="white"/>
<path d="M331.403 342.681C330.926 342.708 330.449 342.722 329.971 342.722C329.826 342.729 329.674 342.729 329.528 342.729C323.51 342.729 317.581 341.274 312.247 338.487C306.913 335.701 302.331 331.666 298.894 326.727C298.617 327.135 298.34 327.543 298.07 327.958C301.654 332.956 306.376 337.028 311.847 339.838C317.317 342.647 323.379 344.112 329.529 344.113C329.722 344.113 329.916 344.113 330.11 344.106C330.594 344.099 331.071 344.085 331.549 344.064C338.936 343.686 346.057 341.188 352.062 336.869C351.84 336.461 351.619 336.053 351.391 335.644C345.555 339.885 338.609 342.33 331.403 342.681Z" fill="white"/>
<path d="M332.537 361.976C332.053 362.017 331.569 362.045 331.084 362.066C330.566 362.087 330.047 362.1 329.528 362.1C321.441 362.091 313.575 359.463 307.107 354.609C300.639 349.754 295.917 342.936 293.649 335.174C293.337 335.734 293.026 336.288 292.729 336.848C295.284 344.592 300.216 351.334 306.822 356.116C313.428 360.897 321.373 363.475 329.528 363.484C330.047 363.484 330.566 363.477 331.078 363.45C331.569 363.436 332.053 363.408 332.537 363.373C342.319 362.608 351.445 358.154 358.066 350.913C357.921 350.401 357.755 349.896 357.589 349.384C351.194 356.679 342.208 361.196 332.537 361.976Z" fill="white"/>
<path d="M291.092 87.1373L98.352 62.5645C97.8327 62.4979 97.3098 62.464 96.7863 62.4629C96.2704 62.462 95.7549 62.4946 95.2431 62.5603C94.7322 62.626 94.2262 62.7251 93.7283 62.8568C93.2244 62.9913 92.7298 63.1582 92.2475 63.3565C91.775 63.5505 91.3148 63.773 90.8692 64.0228C90.4177 64.2744 89.9813 64.5525 89.5626 64.8556C89.1342 65.1666 88.7238 65.5016 88.3333 65.8591C87.9302 66.227 87.5471 66.6162 87.1857 67.025C86.8148 67.4461 86.4657 67.8858 86.1397 68.3425C85.8105 68.805 85.5015 69.2861 85.2128 69.7858C84.9241 70.2872 84.6562 70.8085 84.4091 71.3498C84.1621 71.8911 83.9367 72.4508 83.7329 73.0287C83.5219 73.6261 83.337 74.2369 83.1782 74.8609C83.0195 75.485 82.8868 76.1199 82.7802 76.7656C82.6758 77.4107 82.5958 78.0664 82.5403 78.7327C82.4848 79.3989 82.457 80.0732 82.457 80.7555C82.4592 81.4373 82.487 82.1169 82.5403 82.7943C82.5936 83.4716 82.6736 84.1434 82.7802 84.8097C82.8879 85.4787 83.0211 86.1411 83.1799 86.7968C83.3387 87.4525 83.5236 88.1006 83.7345 88.7414C83.9383 89.3604 84.1637 89.9653 84.4108 90.5561C84.6579 91.1474 84.9257 91.7225 85.2144 92.2816C85.5032 92.8407 85.8121 93.3837 86.1414 93.9106C86.4701 94.4397 86.8187 94.9489 87.1874 95.438C87.556 95.9271 87.9386 96.3938 88.335 96.8379C88.7314 97.2793 89.1412 97.6957 89.5642 98.0872C89.9873 98.4786 90.4228 98.8442 90.8709 99.184C91.314 99.5203 91.7741 99.8339 92.2492 100.123C92.7276 100.415 93.222 100.68 93.7299 100.917C94.2227 101.147 94.7285 101.347 95.2448 101.517C95.7505 101.684 96.2658 101.82 96.788 101.925C97.305 102.028 97.8279 102.099 98.3537 102.137L291.094 116.236C291.654 116.276 292.218 116.22 292.759 116.069C293.035 115.992 293.304 115.893 293.563 115.773C293.834 115.647 294.095 115.5 294.343 115.335C294.596 115.168 294.836 114.984 295.065 114.786C295.304 114.577 295.531 114.355 295.744 114.119C295.969 113.871 296.182 113.611 296.38 113.34C296.584 113.061 296.781 112.764 296.97 112.449C297.159 112.134 297.337 111.805 297.506 111.462C297.674 111.119 297.831 110.764 297.978 110.394C298.125 110.026 298.261 109.644 298.386 109.25C298.511 108.856 298.625 108.45 298.727 108.032C298.836 107.601 298.929 107.161 299.007 106.713C299.085 106.266 299.152 105.812 299.208 105.351C299.262 104.89 299.302 104.423 299.329 103.95C299.355 103.477 299.369 102.999 299.369 102.515C299.367 102.032 299.354 101.551 299.329 101.073C299.304 100.594 299.263 100.119 299.208 99.6478C299.154 99.1764 299.087 98.7089 299.007 98.2453C298.927 97.7817 298.834 97.3231 298.727 96.8695C298.625 96.4309 298.511 96.0023 298.386 95.5837C298.262 95.1706 298.126 94.7636 297.978 94.3628C297.83 93.9619 297.672 93.5733 297.506 93.1968C297.338 92.821 297.159 92.4562 296.97 92.1025C296.781 91.7489 296.584 91.4124 296.38 91.0931C296.175 90.7739 295.963 90.4713 295.744 90.1854C295.525 89.8995 295.298 89.6318 295.065 89.3825C294.837 89.1383 294.596 88.9065 294.343 88.688C294.096 88.474 293.835 88.2756 293.563 88.0942C293.306 87.9228 293.038 87.7698 292.759 87.6361C292.493 87.5084 292.218 87.4015 291.935 87.3164C291.659 87.2337 291.377 87.1739 291.092 87.1373Z" fill="#6C63FF"/>
<path d="M291.092 142.558L98.352 137.941C97.3065 137.915 96.2619 138.022 95.2431 138.259C94.7292 138.378 94.2233 138.53 93.7282 138.712C93.2221 138.899 92.7276 139.116 92.2475 139.362C91.7735 139.605 91.3133 139.874 90.8692 140.168C90.4166 140.468 89.9804 140.792 89.5626 141.138C89.1338 141.494 88.7235 141.872 88.3333 142.269C87.9363 142.674 87.5538 143.103 87.1857 143.559C86.8176 144.015 86.4689 144.49 86.1397 144.985C85.8104 145.48 85.5015 145.993 85.2128 146.524C84.9241 147.055 84.6562 147.605 84.4091 148.171C84.1621 148.738 83.9366 149.321 83.7329 149.92C83.5219 150.541 83.337 151.171 83.1782 151.811C83.0194 152.451 82.8868 153.099 82.7802 153.756C82.6758 154.413 82.5958 155.077 82.5403 155.749C82.4848 156.421 82.457 157.098 82.457 157.78C82.4592 158.463 82.487 159.14 82.5403 159.811C82.5936 160.482 82.6736 161.146 82.7802 161.802C82.8879 162.455 83.0211 163.101 83.1799 163.74C83.3387 164.379 83.5235 165.008 83.7345 165.627C83.9383 166.228 84.1637 166.811 84.4108 167.376C84.6578 167.941 84.9257 168.489 85.2144 169.018C85.5032 169.548 85.8121 170.059 86.1413 170.552C86.47 171.042 86.8187 171.514 87.1874 171.967C87.556 172.42 87.9385 172.848 88.335 173.249C88.7251 173.644 89.1354 174.019 89.5642 174.372C89.9821 174.716 90.4183 175.037 90.8709 175.334C91.3151 175.626 91.7752 175.892 92.2492 176.131C92.7294 176.375 93.2239 176.588 93.7299 176.772C94.2251 176.951 94.7311 177.099 95.2448 177.216C95.7534 177.332 96.2688 177.415 96.788 177.466C97.3083 177.515 97.8312 177.532 98.3537 177.516L291.092 171.652C291.375 171.644 291.657 171.611 291.935 171.555C292.216 171.498 292.492 171.418 292.759 171.316C293.037 171.21 293.305 171.083 293.563 170.936C293.835 170.782 294.095 170.609 294.343 170.418C294.596 170.224 294.837 170.016 295.065 169.794C295.304 169.56 295.531 169.315 295.744 169.057C295.963 168.795 296.175 168.514 296.38 168.212C296.584 167.911 296.781 167.593 296.97 167.26C297.159 166.925 297.337 166.577 297.506 166.218C297.674 165.858 297.831 165.486 297.978 165.102C298.125 164.711 298.261 164.314 298.386 163.91C298.511 163.506 298.625 163.089 298.727 162.661C298.836 162.222 298.929 161.775 299.007 161.319C299.085 160.863 299.152 160.402 299.208 159.936C299.262 159.468 299.302 158.996 299.329 158.52C299.355 158.044 299.369 157.564 299.369 157.081C299.367 156.602 299.354 156.123 299.329 155.645C299.304 155.167 299.263 154.695 299.208 154.229C299.154 153.762 299.087 153.301 299.007 152.848C298.927 152.394 298.834 151.945 298.727 151.501C298.624 151.072 298.51 150.655 298.385 150.249C298.26 149.842 298.124 149.447 297.978 149.064C297.832 148.681 297.675 148.31 297.506 147.951C297.338 147.592 297.16 147.245 296.971 146.912C296.782 146.579 296.585 146.262 296.38 145.963C296.176 145.664 295.964 145.383 295.745 145.121C295.532 144.865 295.305 144.621 295.065 144.389C294.838 144.168 294.597 143.961 294.344 143.769C294.096 143.581 293.836 143.409 293.564 143.256C293.306 143.112 293.037 142.987 292.759 142.883C292.491 142.783 292.216 142.704 291.935 142.649C291.657 142.595 291.375 142.564 291.092 142.558Z" fill="#E4E4E4"/>
<path d="M291.092 194.515L98.352 208.611C97.8262 208.649 97.3033 208.72 96.7863 208.823C96.2641 208.928 95.7488 209.064 95.2431 209.231C94.7268 209.401 94.221 209.601 93.7283 209.831C93.2203 210.068 92.726 210.333 92.2475 210.625C91.7724 210.914 91.3124 211.228 90.8692 211.564C90.4206 211.907 89.9851 212.272 89.5626 212.661C89.14 213.051 88.7303 213.468 88.3333 213.91C87.9364 214.353 87.5538 214.819 87.1857 215.31C86.8176 215.803 86.469 216.312 86.1397 216.839C85.8105 217.366 85.5015 217.909 85.2128 218.468C84.9241 219.028 84.6562 219.603 84.4091 220.194C84.1621 220.784 83.9367 221.389 83.7329 222.008C83.5219 222.648 83.337 223.296 83.1782 223.953C83.0195 224.61 82.8868 225.271 82.7802 225.938C82.6758 226.605 82.5958 227.277 82.5403 227.954C82.4848 228.631 82.457 229.31 82.457 229.992C82.4592 230.675 82.487 231.349 82.5403 232.015C82.5936 232.682 82.6736 233.338 82.7802 233.983C82.8879 234.631 83.0211 235.266 83.1799 235.889C83.3387 236.512 83.5236 237.122 83.7345 237.721C83.9383 238.299 84.1637 238.859 84.4108 239.4C84.6579 239.941 84.9257 240.463 85.2144 240.964C85.5032 241.465 85.8121 241.946 86.1414 242.407C86.4673 242.864 86.8164 243.304 87.1874 243.725C87.5488 244.134 87.9319 244.523 88.335 244.891C88.7254 245.248 89.1358 245.583 89.5642 245.894C89.983 246.197 90.4193 246.475 90.8709 246.727C91.3164 246.977 91.7767 247.199 92.2492 247.393C92.7315 247.591 93.2261 247.758 93.7299 247.893C94.2279 248.025 94.7339 248.124 95.2448 248.189C95.7565 248.255 96.272 248.288 96.788 248.287C97.3115 248.286 97.8344 248.252 98.3537 248.185L291.092 223.618C291.377 223.582 291.659 223.522 291.935 223.439C292.218 223.354 292.493 223.247 292.759 223.119C293.038 222.986 293.306 222.833 293.563 222.661C293.835 222.48 294.096 222.282 294.343 222.067C294.596 221.849 294.837 221.617 295.065 221.373C295.296 221.123 295.522 220.855 295.744 220.57C295.963 220.285 296.175 219.982 296.38 219.662C296.584 219.343 296.781 219.006 296.97 218.653C297.159 218.302 297.337 217.937 297.506 217.559C297.674 217.18 297.831 216.791 297.978 216.393C298.125 215.992 298.261 215.583 298.386 215.164C298.511 214.746 298.625 214.317 298.727 213.879C298.836 213.424 298.929 212.965 299.007 212.502C299.085 212.038 299.152 211.571 299.208 211.099C299.262 210.628 299.302 210.153 299.329 209.674C299.355 209.196 299.369 208.715 299.369 208.231C299.366 207.75 299.353 207.274 299.328 206.8C299.303 206.327 299.263 205.861 299.207 205.4C299.154 204.937 299.087 204.482 299.007 204.035C298.927 203.587 298.834 203.147 298.727 202.716C298.625 202.297 298.511 201.892 298.386 201.498C298.263 201.104 298.127 200.723 297.979 200.354C297.83 199.984 297.673 199.629 297.506 199.286C297.337 198.946 297.158 198.618 296.968 198.302C296.779 197.985 296.582 197.688 296.378 197.411C296.18 197.14 295.968 196.88 295.742 196.631C295.529 196.396 295.302 196.173 295.063 195.965C294.835 195.766 294.594 195.582 294.342 195.415C294.093 195.25 293.832 195.104 293.561 194.978C293.302 194.857 293.033 194.758 292.758 194.681C292.216 194.53 291.653 194.474 291.092 194.515Z" fill="#E4E4E4"/>
<path d="M186.038 197.098C187.259 199.127 189.183 200.638 191.444 201.343C193.706 202.048 196.147 201.899 198.306 200.922C200.464 199.946 202.188 198.211 203.152 196.047C204.116 193.883 204.251 191.441 203.532 189.183L240.887 112.44L223.007 101.601L190.746 183.118C190.623 183.165 190.502 183.216 190.382 183.268C190.263 183.321 190.144 183.376 190.025 183.433C189.906 183.49 189.788 183.55 189.672 183.613C189.555 183.676 189.439 183.743 189.323 183.812C187.126 185.138 185.546 187.283 184.93 189.774C184.313 192.265 184.712 194.899 186.037 197.097L186.038 197.098Z" fill="#9E616A"/>
<path d="M233.756 142.033L207.219 135.231C207.219 135.231 208.085 133.272 209.493 130.027C210.902 126.783 212.869 122.258 215.082 117.121C217.296 111.983 219.751 106.243 222.15 100.569C224.548 94.8956 226.881 89.2897 228.845 84.4305C230.81 79.5714 233.042 76.6613 235.285 75.0303C237.141 73.6194 239.479 72.9978 241.792 73.3006C243.589 73.5682 245.306 74.2221 246.826 75.2171C247.546 75.6649 248.223 76.1784 248.847 76.7511L255 87.9404L233.756 142.033Z" fill="#CCCCCC"/>
<path d="M21.38 135.955C20.7374 136.002 20.0979 136.086 19.4646 136.205C18.8272 136.324 18.1969 136.479 17.5766 136.668C16.9469 136.86 16.328 137.086 15.7228 137.346C15.1033 137.611 14.4982 137.908 13.9098 138.237C13.334 138.56 12.7713 138.912 12.2216 139.293C11.672 139.673 11.1382 140.082 10.6202 140.519C10.1027 140.954 9.60052 141.419 9.1136 141.913C8.62668 142.406 8.15756 142.927 7.70618 143.474C7.25479 144.022 6.827 144.589 6.4228 145.176C6.0186 145.763 5.63939 146.367 5.28518 146.99C4.93429 147.613 4.60615 148.253 4.30079 148.911C3.99543 149.568 3.71783 150.241 3.46799 150.929C3.2076 151.642 2.97969 152.363 2.78425 153.091C2.58882 153.82 2.42586 154.554 2.29539 155.295C2.16436 156.036 2.0661 156.781 2.00058 157.532C1.93507 158.283 1.90233 159.036 1.90234 159.793C1.90234 160.55 1.93509 161.297 2.00058 162.034C2.06608 162.771 2.16434 163.497 2.29539 164.212C2.42586 164.926 2.58882 165.628 2.78425 166.317C2.97969 167.006 3.20677 167.681 3.4655 168.342C3.71756 168.98 3.99515 169.597 4.2983 170.193C4.59794 170.783 4.92703 171.358 5.28434 171.915C5.63605 172.462 6.01578 172.99 6.42197 173.498C6.82429 174.002 7.25295 174.485 7.70616 174.944C8.15188 175.396 8.62171 175.823 9.1136 176.224C9.59528 176.616 10.0985 176.981 10.621 177.317C11.652 177.981 12.7558 178.524 13.9106 178.936C15.0944 179.359 16.3246 179.639 17.5749 179.769C18.2021 179.834 18.8325 179.861 19.4629 179.852C20.1034 179.843 20.743 179.798 21.3784 179.716C22.0195 179.635 22.6556 179.518 23.2838 179.366C23.9139 179.213 24.5353 179.027 25.1451 178.807C25.7619 178.584 26.3666 178.329 26.9565 178.043C27.5576 177.752 28.1435 177.43 28.7121 177.079C29.2656 176.734 29.8047 176.363 30.3294 175.968C30.8541 175.573 31.3623 175.151 31.8543 174.704C32.3462 174.256 32.8211 173.784 33.2792 173.288C33.7372 172.792 34.1775 172.271 34.6 171.726C35.0253 171.181 35.4256 170.62 35.8009 170.042C36.1763 169.465 36.5277 168.872 36.8553 168.264C37.1829 167.656 37.486 167.034 37.7647 166.398C38.0434 165.762 38.2974 165.112 38.5267 164.449C38.7644 163.763 38.9723 163.071 39.1505 162.373C39.3287 161.675 39.4775 160.972 39.5969 160.264C39.7157 159.556 39.8051 158.844 39.8651 158.128C39.925 157.413 39.955 156.694 39.955 155.972C39.9545 155.25 39.9245 154.538 39.8651 153.834C39.8057 153.13 39.7163 152.436 39.5969 151.752C39.4781 151.069 39.3293 150.396 39.1505 149.733C38.9718 149.07 38.7638 148.419 38.5267 147.782C38.2963 147.164 38.0423 146.565 37.7647 145.985C37.4832 145.407 37.1787 144.845 36.8511 144.301C36.2027 143.226 35.4486 142.218 34.6 141.292C34.1836 140.837 33.7439 140.404 33.2825 139.994C32.8282 139.592 32.3526 139.215 31.8576 138.864C31.3674 138.516 30.8583 138.196 30.3327 137.905C29.8075 137.614 29.2665 137.353 28.7121 137.122C27.5675 136.646 26.3705 136.306 25.146 136.111C24.5297 136.012 23.9082 135.95 23.2847 135.925C22.6495 135.899 22.0133 135.91 21.3792 135.956" fill="#E4E4E4"/>
<path d="M21.38 214.239C20.7374 214.286 20.0979 214.37 19.4646 214.489C18.8272 214.608 18.1969 214.763 17.5766 214.952C16.9469 215.144 16.328 215.371 15.7228 215.63C15.1033 215.895 14.4982 216.192 13.9098 216.521C13.334 216.845 12.7713 217.197 12.2216 217.577C11.672 217.957 11.1382 218.366 10.6202 218.803C10.1027 219.239 9.60052 219.703 9.1136 220.197C8.62668 220.69 8.15756 221.211 7.70618 221.758C7.25479 222.306 6.827 222.873 6.4228 223.46C6.0186 224.047 5.63939 224.651 5.28518 225.274C4.93429 225.897 4.60615 226.538 4.30079 227.195C3.99543 227.852 3.71783 228.525 3.46799 229.213C3.2076 229.926 2.97969 230.647 2.78425 231.376C2.58882 232.104 2.42586 232.839 2.29539 233.579C2.16436 234.32 2.0661 235.066 2.00058 235.816C1.93507 236.567 1.90233 237.32 1.90234 238.077C1.90234 238.834 1.93509 239.581 2.00058 240.318C2.06608 241.056 2.16434 241.782 2.29539 242.496C2.42586 243.211 2.58882 243.912 2.78425 244.601C2.97969 245.29 3.20677 245.965 3.4655 246.626C3.71756 247.264 3.99515 247.881 4.2983 248.477C4.59794 249.068 4.92703 249.642 5.28434 250.2C5.63605 250.746 6.01578 251.274 6.42197 251.782C6.82429 252.286 7.25295 252.769 7.70616 253.229C8.15188 253.68 8.62171 254.107 9.1136 254.508C9.59528 254.9 10.0985 255.265 10.621 255.601C11.652 256.265 12.7558 256.808 13.9106 257.22C15.0944 257.643 16.3246 257.923 17.5749 258.053C18.2021 258.118 18.8325 258.146 19.4629 258.136C20.1034 258.127 20.743 258.082 21.3784 258.001C22.0195 257.919 22.6556 257.802 23.2838 257.65C23.9139 257.498 24.5353 257.311 25.1451 257.091C25.7619 256.869 26.3666 256.614 26.9565 256.327C27.5576 256.036 28.1435 255.714 28.7121 255.363C29.2656 255.018 29.8047 254.647 30.3294 254.252C30.8541 253.857 31.3623 253.435 31.8543 252.988C32.3462 252.54 32.8211 252.068 33.2792 251.572C33.7372 251.076 34.1775 250.555 34.6 250.01C35.0253 249.465 35.4256 248.904 35.8009 248.327C36.1763 247.749 36.5277 247.157 36.8553 246.549C37.1829 245.941 37.486 245.319 37.7647 244.682C38.0434 244.046 38.2974 243.396 38.5267 242.733C38.7644 242.047 38.9723 241.355 39.1505 240.657C39.3287 239.959 39.4775 239.257 39.5969 238.549C39.7157 237.84 39.8051 237.128 39.8651 236.412C39.925 235.697 39.955 234.978 39.955 234.256C39.9545 233.535 39.9245 232.822 39.8651 232.118C39.8057 231.414 39.7163 230.72 39.5969 230.036C39.4781 229.353 39.3293 228.68 39.1505 228.017C38.9718 227.354 38.7638 226.704 38.5267 226.066C38.2963 225.448 38.0423 224.85 37.7647 224.269C37.4832 223.691 37.1787 223.129 36.8511 222.585C36.2027 221.51 35.4486 220.502 34.6 219.576C34.1836 219.121 33.7439 218.688 33.2825 218.278C32.8282 217.876 32.3526 217.499 31.8576 217.148C31.3674 216.801 30.8583 216.481 30.3327 216.189C29.8075 215.898 29.2665 215.637 28.7121 215.407C27.5675 214.93 26.3705 214.59 25.146 214.395C24.5297 214.296 23.9082 214.234 23.2847 214.209C22.6495 214.183 22.0133 214.194 21.3792 214.241" fill="#E4E4E4"/>
<path d="M21.3828 51.148C20.7436 51.1324 20.1041 51.1533 19.4673 51.2105C18.8331 51.2674 18.2028 51.3609 17.5793 51.4903C16.9524 51.6213 16.3334 51.7881 15.7255 51.99C15.1082 52.1943 14.503 52.4331 13.9125 52.7053C13.3345 52.9716 12.771 53.2682 12.2244 53.5939C11.6723 53.9229 11.1378 54.2804 10.6229 54.6649C10.0997 55.0556 9.59657 55.4726 9.11551 55.9141C8.62638 56.3633 8.1564 56.8394 7.70557 57.3424C7.25419 57.846 6.82639 58.3717 6.42219 58.9197C6.01799 59.4677 5.63879 60.0357 5.28458 60.6237C4.93202 61.2194 4.60305 61.8298 4.29769 62.455C3.99234 63.0801 3.71474 63.7258 3.4649 64.3921C3.20617 65.0789 2.97909 65.777 2.78365 66.4866C2.58821 67.1962 2.42526 67.9149 2.29479 68.6427C2.16376 69.3728 2.06549 70.109 1.99998 70.8514C1.93447 71.5937 1.90172 72.3432 1.90174 73.0999C1.90174 73.8556 1.93449 74.6051 1.99998 75.3485C2.06548 76.0919 2.16374 76.8273 2.29479 77.5546C2.42526 78.2819 2.58822 78.9995 2.78365 79.7074C2.97908 80.4153 3.20617 81.1121 3.4649 81.7978C3.71695 82.4601 3.99455 83.1042 4.29769 83.7299C4.60306 84.3534 4.93284 84.9583 5.28703 85.5446C5.64122 86.1309 6.02045 86.6964 6.42466 87.241C6.8283 87.7873 7.25608 88.3103 7.70802 88.81C8.15997 89.3097 8.62912 89.7816 9.11547 90.2258C9.59401 90.6657 10.0946 91.081 10.6153 91.47C11.1303 91.8511 11.6649 92.205 12.2168 92.5302C12.7636 92.8525 13.3271 93.1455 13.9049 93.4079C14.4956 93.6764 15.1009 93.9114 15.718 94.1117C16.9323 94.5046 18.1878 94.7561 19.4598 94.8612C20.7334 94.9668 22.0149 94.928 23.2799 94.7454C23.907 94.6548 24.5284 94.5286 25.1412 94.3673C25.7555 94.2055 26.3603 94.0092 26.9526 93.7794C27.5518 93.5471 28.1378 93.2821 28.7081 92.9857C29.2642 92.6969 29.8051 92.3797 30.3288 92.0355C30.8554 91.689 31.3644 91.3162 31.8536 90.9187C32.3455 90.5189 32.8205 90.0931 33.2786 89.6412C33.7366 89.1892 34.1769 88.7112 34.5994 88.2071C35.0247 87.7029 35.425 87.1805 35.8003 86.6397C36.1756 86.099 36.5271 85.5404 36.8547 84.9641C37.1834 84.3878 37.4865 83.7951 37.7641 83.1861C38.0417 82.577 38.2957 81.9532 38.5261 81.3147C38.7638 80.6518 38.9717 79.98 39.1499 79.2994C39.3281 78.6187 39.4769 77.9302 39.5963 77.234C39.7151 76.535 39.8045 75.8304 39.8644 75.1203C39.9244 74.4102 39.9544 73.6943 39.9544 72.9725C39.9538 72.2513 39.9238 71.5356 39.8644 70.8255C39.805 70.1154 39.7157 69.4128 39.5963 68.7177C39.4775 68.022 39.3287 67.3341 39.1499 66.654C38.9711 65.9739 38.7632 65.3032 38.5261 64.6419C38.2957 64.0029 38.0417 63.3797 37.7641 62.7723C37.4865 62.1649 37.182 61.5733 36.8505 60.9976C36.5229 60.4268 36.1715 59.8716 35.7961 59.3319C35.4208 58.7923 35.0219 58.2726 34.5994 57.7729C34.1797 57.2738 33.7405 56.7994 33.2819 56.3497C32.8233 55.8999 32.3483 55.4772 31.857 55.0813C31.368 54.6861 30.8593 54.3158 30.3329 53.972C29.8092 53.6309 29.2683 53.3171 28.7123 53.0318C28.1419 52.7388 27.5558 52.4775 26.9567 52.2489C26.3643 52.0229 25.7595 51.8305 25.1454 51.6726C24.5324 51.5152 23.9109 51.3929 23.284 51.3062C22.6523 51.2191 22.0161 51.168 21.3786 51.153M21.3786 49.0693C24.1762 49.1459 26.92 49.856 29.4035 51.1463C31.8715 52.4368 34.059 54.204 35.8395 56.3455C37.7006 58.5773 39.15 61.1223 40.1201 63.8616C42.1976 69.7576 42.1976 76.1866 40.1201 82.0826C39.149 84.8298 37.6998 87.3836 35.8395 89.6262C34.0588 91.7779 31.8715 93.5576 29.4027 94.8637C26.9224 96.1694 24.179 96.8974 21.3777 96.9932C18.5592 97.0856 15.7572 96.5271 13.1896 95.3609C10.5974 94.1736 8.27848 92.4636 6.37802 90.3382C4.35992 88.0875 2.78044 85.4793 1.72097 82.6481C-0.573656 76.4846 -0.573656 69.7012 1.72097 63.5376C2.78148 60.6979 4.36065 58.0801 6.37802 55.8175C8.27789 53.6803 10.5962 51.9557 13.1896 50.7507C15.7552 49.5681 18.5586 48.9916 21.3827 49.0659L21.3786 49.0693Z" fill="#6C63FF"/>
<path d="M21.3803 78.9219L14.8203 65.2555L16.3777 64.2412L21.7809 75.4683L44.4683 48.8018L45.8416 50.265L21.3803 78.9219Z" fill="#6C63FF"/>
<path d="M260.127 348.732L243.887 348.669L249.123 391.103L260.127 391.158V348.732Z" fill="#9E616A"/>
<path d="M262.932 401.836L227.473 401.648V401.2C227.472 400.29 227.561 399.382 227.737 398.49C228.086 396.728 228.781 395.054 229.782 393.564C230.799 392.053 232.102 390.757 233.617 389.748C235.112 388.753 236.79 388.066 238.553 387.725C239.447 387.553 240.355 387.469 241.266 387.475L262.932 387.581V401.836Z" fill="#2F2E41"/>
<path d="M208.129 348.531L191.936 348.468L197.156 390.844L208.129 390.899V348.531Z" fill="#9E616A"/>
<path d="M210.927 401.56L175.561 401.374V400.926C175.56 400.018 175.649 399.111 175.825 398.22C176.173 396.461 176.866 394.789 177.864 393.3C178.878 391.791 180.177 390.496 181.69 389.488C183.181 388.496 184.855 387.81 186.614 387.47C187.505 387.298 188.411 387.214 189.319 387.22L210.927 387.326V401.56Z" fill="#2F2E41"/>
<path d="M207.441 175.092L180.211 276.713L190.178 374.124L212.247 374.732L207.442 286.776L234.974 242.882L240.945 375.331L260.964 373.916L272.1 260.036C275.883 251.144 278.657 241.856 280.37 232.346C281.717 224.881 282.372 217.308 282.327 209.722C282.304 204.616 281.911 199.518 281.152 194.468C280.881 192.586 280.514 190.719 280.052 188.875L271.933 180.644L207.441 175.092Z" fill="#2F2E41"/>
<path d="M243.52 192.087C238.94 192.087 234.644 191.94 230.747 191.65C226.767 191.377 222.808 190.856 218.893 190.09C215.56 189.467 212.313 188.445 209.224 187.046C206.738 185.972 204.576 184.265 202.953 182.097L202.768 181.827L210.21 133.388L218.237 78.9251C218.765 75.3209 220.6 72.0369 223.393 69.6981C226.185 67.3593 229.741 66.129 233.381 66.2415L258.518 67.0117C260.403 67.0695 262.257 67.5052 263.971 68.2929C265.684 69.0806 267.222 70.2043 268.493 71.5974C269.765 72.9905 270.743 74.6246 271.371 76.4029C271.999 78.1812 272.263 80.0675 272.149 81.9498L268.849 136.114L281.021 189.541L280.159 189.662C279.812 189.707 278.476 189.884 276.384 190.119C273.649 190.427 270.856 190.704 268.083 190.943C264.161 191.281 260.322 191.547 256.674 191.733C252.048 191.969 247.614 192.083 243.52 192.087Z" fill="#CCCCCC"/>
<path d="M229.57 56.6172C229.564 56.6173 229.557 56.6173 229.55 56.6172C229.023 56.6169 228.501 56.5127 228.014 56.3106C227.527 56.1085 227.084 55.8124 226.712 55.4393C226.339 55.0661 226.043 54.6232 225.842 54.1359C225.64 53.6485 225.537 53.1263 225.537 52.5989V30.1881C225.533 26.1729 226.337 22.198 227.9 18.4996C230.961 11.2824 236.688 5.52466 243.89 2.42643C248.444 0.472926 253.412 -0.320542 258.348 0.117071C263.285 0.554684 268.036 2.20971 272.176 4.93397C276.315 7.65822 279.715 11.3666 282.07 15.7272C284.425 20.0877 285.661 24.9642 285.669 29.9199V52.3649C285.67 52.9051 285.562 53.4398 285.351 53.9373C284.938 54.9076 284.167 55.681 283.197 56.0959C282.7 56.3082 282.165 56.4184 281.624 56.4199L229.567 56.6172H229.57Z" fill="#2F2E41"/>
<path d="M269.179 22.5024C271.275 26.3323 272.19 30.6977 271.808 35.0473C271.425 39.3969 269.762 43.5355 267.029 46.9405C264.295 50.3455 260.614 52.8641 256.45 54.1782C252.286 55.4924 247.826 55.5431 243.634 54.324C240.857 53.5262 238.267 52.1854 236.013 50.3793C233.758 48.5732 231.885 46.3377 230.5 43.8023C228.408 39.9741 227.497 35.6122 227.881 31.2666C228.264 26.921 229.926 22.7863 232.656 19.3838C235.386 15.9812 239.063 13.4632 243.222 12.1472C247.381 10.8313 251.837 10.7762 256.028 11.9891C258.807 12.7839 261.4 14.1226 263.657 15.9275C265.915 17.7324 267.792 19.9675 269.179 22.5033V22.5024Z" fill="#9E616A"/>
<path d="M218.43 32.0123C218.427 28.8368 219.062 25.6931 220.298 22.7681C222.719 17.061 227.248 12.5084 232.943 10.0594C235.865 8.80756 239.009 8.15615 242.187 8.14397L246.673 8.12149C246.723 8.1212 246.773 8.12107 246.824 8.1211C249.93 8.12301 253.005 8.73667 255.874 9.92705C258.743 11.1174 261.349 12.8612 263.544 15.0588C265.739 17.2564 267.479 19.8649 268.666 22.7352C269.853 25.6055 270.463 28.6814 270.461 31.7874V32.2363L260.972 32.2746L257.737 23.2353L257.089 32.2921L252.188 32.3137L250.557 27.7533L250.23 32.3195L218.434 32.462L218.43 32.0123Z" fill="#2F2E41"/>
<path d="M180.229 79.1569C178.769 79.5141 177.403 80.1833 176.226 81.1184C175.307 81.8461 174.52 82.7279 173.902 83.7245C172.683 85.6969 172.146 88.0152 172.373 90.3227C172.488 91.4884 172.804 92.6253 173.308 93.6829C173.928 95.0009 174.822 96.1723 175.928 97.1198C177.035 98.0672 178.33 98.7691 179.728 99.1791C181.126 99.5891 182.595 99.6979 184.038 99.4983C185.482 99.2987 186.866 98.7953 188.1 98.0213C188.191 97.9626 188.281 97.903 188.37 97.8425C188.46 97.7821 188.547 97.7204 188.633 97.6574C188.72 97.5943 188.805 97.5303 188.888 97.4653C188.972 97.4002 189.055 97.3343 189.137 97.2673L241.498 115.903C243.109 116.476 244.863 116.51 246.495 116C248.127 115.491 249.55 114.464 250.548 113.076L262.962 95.8888L247.954 85.7824L240.078 94.7294L192.159 85.1972C192.107 85.073 192.052 84.9495 191.996 84.8265C191.94 84.7036 191.882 84.5812 191.821 84.4594C191.759 84.3379 191.695 84.217 191.63 84.0968C191.564 83.9765 191.495 83.8572 191.421 83.7389C190.278 81.8917 188.579 80.4536 186.569 79.6305C184.558 78.8075 182.339 78.6417 180.229 79.1569Z" fill="#9E616A"/>
<path d="M240.923 89.087C242.489 87.1322 244.679 84.5942 246.904 82.0769C249.129 79.5597 251.387 77.0647 253.09 75.1983C254.793 73.3319 255.94 72.0949 255.94 72.0949C257.512 69.7178 259.858 67.9582 262.58 67.115C265.303 66.2717 268.233 66.3969 270.873 67.4691C273.514 68.5414 275.702 70.4946 277.066 72.9971C278.429 75.4996 278.885 78.397 278.354 81.1971C278.051 82.8091 277.425 84.3432 276.514 85.707C276.514 85.707 274.806 87.9423 272.227 91.2789C269.649 94.6154 266.199 99.057 262.719 103.473C259.239 107.888 255.725 112.281 253.016 115.524C250.306 118.766 248.4 120.861 248.131 120.682L238.68 92.589C238.412 92.4096 239.356 91.0418 240.923 89.087Z" fill="#CCCCCC"/>
<path d="M246.532 55.9113C246.383 56.6358 246.441 57.3875 246.698 58.0808C246.827 58.4356 247.006 58.7706 247.228 59.076C247.418 59.3362 247.638 59.573 247.884 59.7814C248.612 60.3967 249.536 60.7324 250.489 60.7283C250.549 60.7277 250.608 60.7261 250.667 60.7233C250.727 60.7205 250.786 60.7164 250.846 60.7108C250.906 60.7058 250.965 60.6992 251.025 60.6908C251.084 60.6825 251.144 60.673 251.204 60.6625L254.572 60.0504L259.21 50.14V59.2176L274.522 56.461V17.9395L248.853 18.0627L249.487 18.7997C251.594 21.2728 252.977 24.279 253.485 27.4876C253.983 30.7374 253.92 34.0485 253.3 37.2773C252.697 40.5443 251.782 43.7458 250.567 46.8379C249.505 49.5771 248.286 52.2529 246.916 54.852C246.739 55.1854 246.61 55.542 246.532 55.9113Z" fill="#2F2E41"/>
<path d="M68.7293 403H386.029C386.25 403 386.462 402.912 386.618 402.756C386.774 402.599 386.862 402.388 386.862 402.167C386.862 401.946 386.774 401.734 386.618 401.578C386.462 401.422 386.25 401.334 386.029 401.334H68.7293C68.5084 401.334 68.2966 401.422 68.1404 401.578C67.9842 401.734 67.8965 401.946 67.8965 402.167C67.8965 402.388 67.9842 402.599 68.1404 402.756C68.2966 402.912 68.5084 403 68.7293 403Z" fill="#CACACA"/>
</g>
<defs>
<clipPath id="clip0_133_98">
<rect width="386.862" height="403" fill="white"/>
</clipPath>
</defs>
</svg>
