<svg width="401" height="266" viewBox="0 0 401 266" fill="none" xmlns="http://www.w3.org/2000/svg">
<g clip-path="url(#clip0_100_270)">
<path d="M143.574 153.085C157.291 128.955 183.456 110.428 211.154 112.213C190.723 134.43 178.81 163.159 177.521 193.315C177.066 204.947 177.772 217.932 170.048 226.641C165.243 232.061 157.898 234.686 150.676 235.236C143.453 235.787 136.233 234.482 129.107 233.183L127.378 233.713C126.72 205.965 129.857 177.215 143.574 153.085Z" fill="#F0F0F0"/>
<path d="M211.195 112.794C190.712 122.654 173.247 139.122 162.526 159.205C160.208 163.547 158.235 168.154 157.374 173.024C156.513 177.897 157.114 182.535 158.779 187.163C160.3 191.394 162.346 195.545 162.813 200.073C163.305 204.844 161.549 209.306 158.388 212.847C154.522 217.179 149.329 219.864 144.159 222.313C138.419 225.032 132.414 227.766 128.349 232.84C127.857 233.455 126.931 232.655 127.423 232.041C134.496 223.212 146.603 221.552 154.999 214.44C158.917 211.121 161.858 206.601 161.672 201.306C161.51 196.675 159.404 192.392 157.826 188.121C156.17 183.637 155.344 179.129 155.938 174.348C156.545 169.457 158.343 164.764 160.54 160.382C165.494 150.499 172.274 141.425 180.04 133.582C188.967 124.566 199.37 117.144 210.799 111.636C211.506 111.296 211.898 112.455 211.195 112.794Z" fill="white"/>
<path d="M165.667 152.494C162.527 150.198 160.305 146.86 159.399 143.078C158.492 139.295 158.96 135.313 160.718 131.843C161.076 131.142 162.182 131.666 161.824 132.368C160.18 135.596 159.745 139.305 160.596 142.826C161.448 146.347 163.53 149.447 166.466 151.568C167.104 152.029 166.301 152.953 165.667 152.494Z" fill="white"/>
<path d="M157.725 185.119C165.593 183.969 172.739 179.896 177.737 173.712C178.232 173.099 179.157 173.899 178.663 174.511C173.45 180.937 166.005 185.161 157.814 186.339C157.033 186.451 156.948 185.23 157.725 185.119Z" fill="white"/>
<path d="M189.572 126.071C190.602 127.213 191.899 128.081 193.347 128.597C194.795 129.113 196.349 129.262 197.868 129.029C198.647 128.908 198.732 130.128 197.958 130.249C196.278 130.498 194.562 130.332 192.961 129.765C191.36 129.198 189.922 128.248 188.772 126.997C188.654 126.888 188.582 126.739 188.57 126.578C188.558 126.418 188.608 126.259 188.709 126.135C188.815 126.012 188.966 125.937 189.127 125.925C189.289 125.914 189.449 125.966 189.572 126.071Z" fill="white"/>
<path d="M266.265 188.333C265.781 188.423 265.297 188.512 264.808 188.612C258.304 189.852 251.912 191.619 245.694 193.895C245.211 194.063 244.723 194.241 244.246 194.423C229.324 200.066 215.58 208.43 203.712 219.09C198.994 223.336 194.605 227.935 190.584 232.847C185.032 239.631 179.551 247.429 172.295 251.852C171.543 252.322 170.763 252.745 169.959 253.119L128.16 235.781C128.084 235.694 128.005 235.616 127.929 235.529L126.229 234.913C126.418 234.645 126.621 234.371 126.81 234.103C126.92 233.948 127.038 233.796 127.148 233.64C127.224 233.537 127.3 233.435 127.363 233.338C127.388 233.304 127.413 233.269 127.435 233.245C127.497 233.148 127.566 233.064 127.624 232.977C128.752 231.444 129.892 229.916 131.045 228.394C131.049 228.384 131.049 228.384 131.063 228.378C139.878 216.8 149.738 205.856 160.945 196.757C161.282 196.483 161.623 196.199 161.979 195.934C167.054 191.86 172.453 188.208 178.122 185.014C181.232 183.275 184.428 181.695 187.698 180.279C196.154 176.637 205.13 174.348 214.297 173.495C232.572 171.798 251.187 175.964 265.203 187.445C265.561 187.739 265.911 188.029 266.265 188.333Z" fill="#F0F0F0"/>
<path d="M265.95 188.825C243.659 184.366 219.8 186.999 199.148 196.58C194.683 198.651 190.334 201.141 186.714 204.511C183.093 207.883 180.78 211.949 179.323 216.646C177.99 220.94 177.125 225.487 174.772 229.382C172.291 233.488 168.203 235.994 163.548 236.918C157.852 238.05 152.089 237.067 146.487 235.91C140.267 234.625 133.827 233.192 127.526 234.796C126.762 234.991 126.505 233.795 127.268 233.6C138.231 230.809 148.897 236.773 159.883 236.149C165.009 235.858 170.079 234.02 173.119 229.68C175.777 225.885 176.674 221.197 177.986 216.838C179.363 212.26 181.418 208.163 184.77 204.703C188.2 201.165 192.461 198.499 196.853 196.323C206.759 191.415 217.635 188.252 228.559 186.666C241.114 184.842 253.889 185.178 266.331 187.662C267.101 187.816 266.715 188.978 265.95 188.825Z" fill="white"/>
<path d="M205.697 193.111C204.572 189.387 204.807 185.385 206.361 181.818C207.915 178.252 210.686 175.355 214.178 173.643C214.886 173.299 215.454 174.383 214.745 174.727C211.49 176.315 208.909 179.015 207.469 182.338C206.029 185.662 205.824 189.391 206.892 192.852C207.124 193.605 205.927 193.859 205.697 193.111Z" fill="white"/>
<path d="M179.712 214.379C186.687 218.199 194.844 219.249 202.559 217.32C203.323 217.129 203.58 218.325 202.817 218.516C194.785 220.508 186.298 219.398 179.049 215.407C178.358 215.027 179.025 214.001 179.712 214.379Z" fill="white"/>
<path d="M240.69 186.408C240.825 187.939 241.339 189.413 242.184 190.697C243.029 191.981 244.181 193.035 245.534 193.765C246.229 194.137 245.562 195.162 244.871 194.793C243.379 193.98 242.11 192.815 241.172 191.398C240.235 189.981 239.659 188.357 239.495 186.666C239.466 186.508 239.498 186.345 239.585 186.21C239.672 186.075 239.808 185.978 239.963 185.939C240.122 185.906 240.287 185.936 240.423 186.024C240.559 186.112 240.655 186.25 240.69 186.408Z" fill="white"/>
<path d="M186.64 216.936C180.786 188.632 173.469 179.195 173.469 179.195L170.673 177.027L167.312 174.416L167.328 174.08L166.531 173.809L166.343 173.664L166.036 173.428L165.987 173.481L165.883 173.589L150.671 168.418L131.371 161.863L122.435 150.247C120.979 148.355 119.105 146.826 116.96 145.779C114.815 144.733 112.456 144.198 110.069 144.215L81.5284 144.426C77.6693 144.455 73.9605 145.926 71.1311 148.551L52.3715 165.952L23.1405 179.912L23.0912 179.863L22.7842 180.082L18.2678 182.242L18.4541 183.212L15.6587 185.229C15.6587 185.229 8.3414 194.01 2.48751 220.346C0.998345 227.048 0.265325 241.423 0.000743528 259.137C-0.0125464 260.033 0.152441 260.923 0.486109 261.755C0.819777 262.587 1.31547 263.344 1.94437 263.982C2.57326 264.621 3.32281 265.128 4.14944 265.474C4.97606 265.82 5.86327 265.999 6.75947 265.999H162.888L182.375 265.999C183.271 265.999 184.157 265.82 184.983 265.474C185.809 265.129 186.559 264.622 187.187 263.985C187.816 263.347 188.312 262.591 188.646 261.76C188.98 260.929 189.146 260.04 189.134 259.144C188.875 239.869 188.143 224.203 186.64 216.936Z" fill="#3F3D56"/>
<path d="M206.673 24.6836C200.598 24.6836 194.773 27.0966 190.478 31.3918C186.183 35.687 183.77 41.5125 183.77 47.5868C183.77 53.6612 186.183 59.4867 190.478 63.7819C194.773 68.0771 200.598 70.4901 206.673 70.4901H377.357C383.431 70.4901 389.256 68.0771 393.552 63.7819C397.847 59.4867 400.26 53.6612 400.26 47.5868C400.26 41.5125 397.847 35.687 393.552 31.3918C389.256 27.0966 383.431 24.6836 377.357 24.6836H206.673Z" fill="#E5E5E5"/>
<path d="M206.672 29.3184C201.827 29.3184 197.181 31.243 193.755 34.669C190.329 38.0949 188.404 42.7414 188.404 47.5864C188.404 52.4314 190.329 57.078 193.755 60.5039C197.181 63.9298 201.827 65.8545 206.672 65.8545H377.356C382.201 65.8545 386.848 63.9298 390.274 60.5039C393.7 57.078 395.624 52.4314 395.624 47.5864C395.624 42.7414 393.7 38.0949 390.274 34.669C386.848 31.243 382.201 29.3184 377.356 29.3184H206.672Z" fill="white"/>
<path d="M100.28 133.494C120.931 133.494 137.672 116.753 137.672 96.1025C137.672 75.4517 120.931 58.7109 100.28 58.7109C79.6294 58.7109 62.8887 75.4517 62.8887 96.1025C62.8887 116.753 79.6294 133.494 100.28 133.494Z" fill="#9E616A"/>
<path d="M90.7159 131.662C90.5562 131.311 90.397 130.958 90.2383 130.604C90.2995 130.605 90.36 130.614 90.4212 130.616L90.7159 131.662Z" fill="#2F2E41"/>
<path d="M61.8498 60.412C63.741 58.9034 65.9513 57.5153 68.3693 57.5933C70.7871 57.6713 73.239 59.8551 72.7381 62.2218C77.1793 54.3583 84.2483 48.3104 92.7044 45.1396C101.16 41.9688 110.463 41.8777 118.98 44.8825C124.989 47.0027 130.882 51.2443 132.263 57.4655C132.617 59.0625 132.693 60.8136 133.69 62.1104C134.948 63.7454 137.353 64.1153 139.334 63.5401C139.354 63.5344 139.373 63.5285 139.393 63.5226C139.728 63.4084 140.089 63.3971 140.43 63.4904C140.771 63.5836 141.076 63.7771 141.306 64.0457C141.536 64.3143 141.68 64.6457 141.72 64.9971C141.759 65.3484 141.692 65.7036 141.528 66.0166L139.827 69.1878C141.971 69.6655 144.198 69.6182 146.319 69.0497C146.672 68.9573 147.044 68.9761 147.385 69.1037C147.726 69.2313 148.02 69.4613 148.225 69.7622C148.43 70.0631 148.538 70.4201 148.532 70.7844C148.526 71.1486 148.408 71.5022 148.194 71.7966C142.587 79.4944 133.22 84.4652 123.661 84.4068C116.867 84.3654 110.003 82.0239 103.391 83.5862C100.833 84.1906 98.4432 85.36 96.3962 87.0086C94.3492 88.6573 92.6972 90.7433 91.5615 93.1136C90.4258 95.4839 89.8352 98.0784 89.8331 100.707C89.8309 103.335 90.4172 105.931 91.5489 108.303C89.5177 106.081 85.5911 106.607 83.5133 108.785C81.4356 110.964 80.8977 114.215 81.1071 117.218C81.4272 121.811 83.2268 126.139 85.124 130.352C69.2181 129.851 54.1737 118.693 49.1097 103.602C44.0245 88.4476 49.3539 70.3804 61.8498 60.412Z" fill="#2F2E41"/>
<path opacity="0.2" d="M36.8027 208.391L47.2902 265.451L53.5829 265.999L36.8027 208.391Z" fill="black"/>
<path opacity="0.2" d="M152.325 204.088L141.838 265.41L135.545 265.999L152.325 204.088Z" fill="black"/>
<path d="M70.7941 41.2077C68.7832 42.0473 66.685 41.1271 65.8051 39.0198C64.9117 36.8803 65.7461 34.7083 67.7892 33.8552C69.8324 33.002 71.8933 33.9245 72.801 36.0985C73.6953 38.24 72.8699 40.3409 70.7941 41.2077ZM66.9422 29.6439L65.3433 30.3115C64.9439 30.4763 64.4972 30.4852 64.0916 30.3364C63.6859 30.1876 63.3509 29.892 63.1527 29.508L63.0737 29.3533C61.3533 26.2508 61.1563 22.4801 62.4913 18.1518C63.728 14.2692 64.2416 11.5385 63.2086 9.0647C62.0143 6.2045 59.464 5.30854 56.2118 6.60644C54.9504 7.13314 54.549 7.12475 53.5564 8.10946C53.3405 8.32626 53.0831 8.49736 52.7996 8.61256C52.5161 8.72775 52.2124 8.78468 51.9064 8.77995C51.6107 8.77646 51.3186 8.71346 51.0477 8.59468C50.7769 8.4759 50.5327 8.30379 50.3297 8.0886C49.9387 7.67391 49.7197 7.12631 49.7168 6.55638C49.7139 5.98645 49.9275 5.43666 50.3142 5.01805C51.9827 3.2715 53.9951 1.88976 56.2244 0.960013C63.212 -1.95778 66.7296 2.34992 68.3393 6.20492C69.9138 9.97555 69.0281 13.4741 67.6051 18.005C66.4125 21.7699 66.482 24.5596 67.8366 27.3335C67.9344 27.5432 67.9889 27.7705 67.9966 28.0018C68.0044 28.2331 67.9653 28.4635 67.8818 28.6793C67.7982 28.8951 67.6719 29.0918 67.5105 29.2575C67.349 29.4233 67.1557 29.5547 66.9422 29.6439Z" fill="#6C63FF"/>
<path d="M244.373 58.511H210.413C210.306 58.5117 210.199 58.4911 210.099 58.4503C209.999 58.4095 209.908 58.3494 209.831 58.2734C209.755 58.1973 209.694 58.1069 209.653 58.0073C209.611 57.9077 209.59 57.8009 209.59 57.693C209.59 57.5851 209.611 57.4783 209.653 57.3787C209.694 57.2791 209.755 57.1886 209.831 57.1126C209.908 57.0366 209.999 56.9765 210.099 56.9357C210.199 56.8949 210.306 56.8743 210.413 56.875H244.373C244.589 56.8765 244.796 56.9633 244.948 57.1165C245.1 57.2698 245.186 57.477 245.186 57.693C245.186 57.909 245.1 58.1162 244.948 58.2694C244.796 58.4227 244.589 58.5095 244.373 58.511Z" fill="#6C63FF"/>
<path d="M287.453 58.7825H253.493C253.386 58.7832 253.279 58.7626 253.179 58.7218C253.079 58.681 252.988 58.6209 252.911 58.5449C252.835 58.4688 252.774 58.3784 252.733 58.2788C252.691 58.1792 252.67 58.0724 252.67 57.9645C252.67 57.8566 252.691 57.7498 252.733 57.6502C252.774 57.5506 252.835 57.4601 252.911 57.3841C252.988 57.3081 253.079 57.2479 253.179 57.2072C253.279 57.1664 253.386 57.1458 253.493 57.1465H287.453C287.561 57.1458 287.668 57.1664 287.768 57.2072C287.868 57.2479 287.959 57.3081 288.035 57.3841C288.112 57.4601 288.173 57.5506 288.214 57.6502C288.255 57.7498 288.277 57.8566 288.277 57.9645C288.277 58.0724 288.255 58.1792 288.214 58.2788C288.173 58.3784 288.112 58.4688 288.035 58.5449C287.959 58.6209 287.868 58.681 287.768 58.7218C287.668 58.7626 287.561 58.7832 287.453 58.7825Z" fill="#6C63FF"/>
<path d="M330.534 59.0559H296.574C296.358 59.0544 296.152 58.9676 295.999 58.8143C295.847 58.6611 295.762 58.4539 295.762 58.2379C295.762 58.0219 295.847 57.8147 295.999 57.6615C296.152 57.5082 296.358 57.4214 296.574 57.4199H330.534C330.642 57.4192 330.749 57.4398 330.849 57.4806C330.948 57.5214 331.039 57.5815 331.116 57.6575C331.192 57.7336 331.253 57.824 331.295 57.9236C331.336 58.0232 331.357 58.13 331.357 58.2379C331.357 58.3458 331.336 58.4526 331.295 58.5522C331.253 58.6518 331.192 58.7423 331.116 58.8183C331.039 58.8943 330.948 58.9544 330.849 58.9952C330.749 59.036 330.642 59.0566 330.534 59.0559Z" fill="#6C63FF"/>
<path d="M373.614 59.3274H339.654C339.438 59.3259 339.232 59.2391 339.079 59.0858C338.927 58.9326 338.842 58.7254 338.842 58.5094C338.842 58.2934 338.927 58.0862 339.079 57.9329C339.232 57.7797 339.438 57.6929 339.654 57.6914H373.614C373.83 57.6929 374.037 57.7797 374.189 57.9329C374.341 58.0862 374.426 58.2934 374.426 58.5094C374.426 58.7254 374.341 58.9326 374.189 59.0858C374.037 59.2391 373.83 59.3259 373.614 59.3274Z" fill="#6C63FF"/>
<path d="M227.319 50.9827C230.805 50.9827 233.631 48.1569 233.631 44.671C233.631 41.1852 230.805 38.3594 227.319 38.3594C223.834 38.3594 221.008 41.1852 221.008 44.671C221.008 48.1569 223.834 50.9827 227.319 50.9827Z" fill="#6C63FF"/>
<path d="M270.659 50.9827C274.145 50.9827 276.971 48.1569 276.971 44.671C276.971 41.1852 274.145 38.3594 270.659 38.3594C267.173 38.3594 264.348 41.1852 264.348 44.671C264.348 48.1569 267.173 50.9827 270.659 50.9827Z" fill="#6C63FF"/>
<path d="M313.999 50.9827C317.485 50.9827 320.311 48.1569 320.311 44.671C320.311 41.1852 317.485 38.3594 313.999 38.3594C310.513 38.3594 307.688 41.1852 307.688 44.671C307.688 48.1569 310.513 50.9827 313.999 50.9827Z" fill="#6C63FF"/>
<path d="M357.339 50.9827C360.825 50.9827 363.651 48.1569 363.651 44.671C363.651 41.1852 360.825 38.3594 357.339 38.3594C353.853 38.3594 351.027 41.1852 351.027 44.671C351.027 48.1569 353.853 50.9827 357.339 50.9827Z" fill="#6C63FF"/>
</g>
<defs>
<clipPath id="clip0_100_270">
<rect width="400.259" height="266" fill="white"/>
</clipPath>
</defs>
</svg>
